<?xml version="1.0" encoding="utf-8"?>
<!-- Generator: Adobe Illustrator 16.0.4, SVG Export Plug-In . SVG Version: 6.00 Build 0)  -->
<!DOCTYPE svg PUBLIC "-//W3C//DTD SVG 1.1//EN" "http://www.w3.org/Graphics/SVG/1.1/DTD/svg11.dtd">
<svg version="1.1" id="Layer_1" xmlns="http://www.w3.org/2000/svg" xmlns:xlink="http://www.w3.org/1999/xlink" x="0px" y="0px"
	 width="1098px" height="260px" viewBox="0 0 1098 260" enable-background="new 0 0 1098 260" xml:space="preserve">
<g>
	<defs>
		<rect id="SVGID_1_" width="1098" height="260"/>
	</defs>
	<clipPath id="SVGID_2_">
		<use xlink:href="#SVGID_1_"  overflow="visible"/>
	</clipPath>
	<g clip-path="url(#SVGID_2_)">
		<text transform="matrix(1 0 0 1 -2.3242 31.0117)"><tspan x="0" y="0" font-family="'Helvetica'" font-size="34.0722">re</tspan><tspan x="30.295" y="0" font-family="'Helvetica'" font-size="34.0722" letter-spacing="-1">f</tspan><tspan x="38.74" y="0" font-family="'Helvetica'" font-size="34.0722">erence</tspan></text>
	</g>
	<rect x="158.998" y="0.884" clip-path="url(#SVGID_2_)" fill="#64F73F" width="40.658" height="43.038"/>
	<g clip-path="url(#SVGID_2_)">
		<text transform="matrix(1 0 0 1 167.9648 31.0117)" font-family="'Helvetica'" font-size="34.0722">A</text>
	</g>
	<rect x="199.66" y="0.884" clip-path="url(#SVGID_2_)" fill="#EB413C" width="44.442" height="43.038"/>
	<g clip-path="url(#SVGID_2_)">
		<text transform="matrix(1 0 0 1 208.623 31.0117)" font-family="'Helvetica'" font-size="34.0722">G</text>
	</g>
	<rect x="244.099" y="0.884" clip-path="url(#SVGID_2_)" fill="#64F73F" width="40.658" height="43.038"/>
	<g clip-path="url(#SVGID_2_)">
		<text transform="matrix(1 0 0 1 253.0664 31.0117)" font-family="'Helvetica'" font-size="34.0722">A</text>
	</g>
	<rect x="284.757" y="0.884" clip-path="url(#SVGID_2_)" fill="#3C88EE" width="38.75" height="43.038"/>
	<g clip-path="url(#SVGID_2_)">
		<text transform="matrix(1 0 0 1 293.7246 31.0117)" font-family="'Helvetica'" font-size="34.0722">T</text>
	</g>
	<rect x="323.507" y="0.884" clip-path="url(#SVGID_2_)" fill="#EB413C" width="44.442" height="43.038"/>
	<g clip-path="url(#SVGID_2_)">
		<text transform="matrix(1 0 0 1 332.4746 31.0117)" font-family="'Helvetica'" font-size="34.0722">G</text>
	</g>
	<rect x="367.949" y="0.884" clip-path="url(#SVGID_2_)" fill="#64F73F" width="40.658" height="43.038"/>
	<g clip-path="url(#SVGID_2_)">
		<text transform="matrix(1 0 0 1 376.9121 31.0117)" font-family="'Helvetica'" font-size="34.0722">A</text>
	</g>
	<rect x="408.607" y="0.884" clip-path="url(#SVGID_2_)" fill="#64F73F" width="40.659" height="43.038"/>
	<g clip-path="url(#SVGID_2_)">
		<text transform="matrix(1 0 0 1 417.5742 31.0117)" font-family="'Helvetica'" font-size="34.0722">A</text>
	</g>
	<rect x="449.266" y="0.884" clip-path="url(#SVGID_2_)" fill="#3C88EE" width="38.75" height="43.038"/>
	<g clip-path="url(#SVGID_2_)">
		<text transform="matrix(1 0 0 1 458.2324 31.0117)" font-family="'Helvetica'" font-size="34.0722">T</text>
	</g>
	<rect x="488.017" y="0.884" clip-path="url(#SVGID_2_)" fill="#3C88EE" width="38.75" height="43.038"/>
	<g clip-path="url(#SVGID_2_)">
		<text transform="matrix(1 0 0 1 496.9844 31.0117)" font-family="'Helvetica'" font-size="34.0722">T</text>
	</g>
	<rect x="526.767" y="0.884" clip-path="url(#SVGID_2_)" fill="#3C88EE" width="38.751" height="43.038"/>
	<g clip-path="url(#SVGID_2_)">
		<text transform="matrix(1 0 0 1 535.7344 31.0117)" font-family="'Helvetica'" font-size="34.0722">T</text>
	</g>
	<rect x="565.518" y="0.884" clip-path="url(#SVGID_2_)" fill="#3C88EE" width="38.75" height="43.038"/>
	<g clip-path="url(#SVGID_2_)">
		<text transform="matrix(1 0 0 1 574.4863 31.0117)" font-family="'Helvetica'" font-size="34.0722">T</text>
	</g>
	<rect x="604.268" y="0.884" clip-path="url(#SVGID_2_)" fill="#3C88EE" width="38.75" height="43.038"/>
	<g clip-path="url(#SVGID_2_)">
		<text transform="matrix(1 0 0 1 613.2344 31.0117)" font-family="'Helvetica'" font-size="34.0722">T</text>
	</g>
	<rect x="643.018" y="0.884" clip-path="url(#SVGID_2_)" fill="#3C88EE" width="38.751" height="43.038"/>
	<g clip-path="url(#SVGID_2_)">
		<text transform="matrix(1 0 0 1 651.9863 31.0117)" font-family="'Helvetica'" font-size="34.0722">T</text>
	</g>
	<rect x="681.769" y="0.884" clip-path="url(#SVGID_2_)" fill="#3C88EE" width="38.75" height="43.038"/>
	<g clip-path="url(#SVGID_2_)">
		<text transform="matrix(1 0 0 1 690.7363 31.0117)" font-family="'Helvetica'" font-size="34.0722">T</text>
	</g>
	<rect x="720.522" y="0.884" clip-path="url(#SVGID_2_)" fill="#EB413C" width="44.442" height="43.038"/>
	<g clip-path="url(#SVGID_2_)">
		<text transform="matrix(1 0 0 1 729.4863 31.0117)" font-family="'Helvetica'" font-size="34.0722">G</text>
	</g>
	<rect x="764.961" y="0.884" clip-path="url(#SVGID_2_)" fill="#EB413C" width="44.441" height="43.038"/>
	<g clip-path="url(#SVGID_2_)">
		<text transform="matrix(1 0 0 1 773.9297 31.0117)" font-family="'Helvetica'" font-size="34.0722">G</text>
	</g>
	<rect x="809.402" y="0.884" clip-path="url(#SVGID_2_)" fill="#64F73F" width="40.659" height="43.038"/>
	<g clip-path="url(#SVGID_2_)">
		<text transform="matrix(1 0 0 1 818.3672 31.0117)" font-family="'Helvetica'" font-size="34.0722">A</text>
	</g>
	<rect x="850.062" y="0.884" clip-path="url(#SVGID_2_)" fill="#64F73F" width="40.658" height="43.038"/>
	<g clip-path="url(#SVGID_2_)">
		<text transform="matrix(1 0 0 1 859.0254 31.0117)" font-family="'Helvetica'" font-size="34.0722">A</text>
	</g>
	<rect x="890.72" y="0.884" clip-path="url(#SVGID_2_)" fill="#EB413C" width="44.442" height="43.038"/>
	<g clip-path="url(#SVGID_2_)">
		<text transform="matrix(1 0 0 1 899.6836 31.0117)" font-family="'Helvetica'" font-size="34.0722">G</text>
	</g>
	<rect x="935.158" y="0.884" clip-path="url(#SVGID_2_)" fill="#3C88EE" width="38.75" height="43.038"/>
	<g clip-path="url(#SVGID_2_)">
		<text transform="matrix(1 0 0 1 944.125 31.0117)" font-family="'Helvetica'" font-size="34.0722">T</text>
	</g>
	<rect x="973.912" y="0.884" clip-path="url(#SVGID_2_)" fill="#64F73F" width="40.658" height="43.038"/>
	<g clip-path="url(#SVGID_2_)">
		<text transform="matrix(1 0 0 1 982.877 31.0117)" font-family="'Helvetica'" font-size="34.0722">A</text>
	</g>
	<rect x="1014.57" y="0.884" clip-path="url(#SVGID_2_)" fill="#FFB340" width="42.533" height="43.038"/>
	<g clip-path="url(#SVGID_2_)">
		<text transform="matrix(1 0 0 1 1023.5352 31.0117)" font-family="'Helvetica'" font-size="34.0722">C</text>
	</g>
	<rect x="1057.101" y="0.884" clip-path="url(#SVGID_2_)" fill="#64F73F" width="40.659" height="43.038"/>
	<g clip-path="url(#SVGID_2_)">
		<text transform="matrix(1 0 0 1 1066.0684 31.0117)" font-family="'Helvetica'" font-size="34.0722">A</text>
	</g>
	<g clip-path="url(#SVGID_2_)">
		<text transform="matrix(1 0 0 1 43.9785 117.0879)"><tspan x="0" y="0" font-family="'Helvetica'" font-size="34.0722">rea</tspan><tspan x="49.245" y="0" font-family="'Helvetica'" font-size="34.0722" letter-spacing="9">d</tspan><tspan x="77.666" y="0" font-family="'Helvetica'" font-size="34.0722">1</tspan></text>
	</g>
	<rect x="367.949" y="86.959" clip-path="url(#SVGID_2_)" fill="#64F73F" width="40.658" height="43.038"/>
	<g clip-path="url(#SVGID_2_)">
		<text transform="matrix(1 0 0 1 376.9121 117.0879)" font-family="'Helvetica'" font-size="34.0722">A</text>
	</g>
	<rect x="408.607" y="86.959" clip-path="url(#SVGID_2_)" fill="#64F73F" width="40.659" height="43.038"/>
	<g clip-path="url(#SVGID_2_)">
		<text transform="matrix(1 0 0 1 417.5742 117.0879)"><tspan x="0" y="0" font-family="'Helvetica'" font-size="34.0722" letter-spacing="18">A</tspan><tspan x="41.602" y="0" font-family="'Helvetica'" font-size="34.0722">–</tspan></text>
	</g>
	<rect x="488.017" y="86.959" clip-path="url(#SVGID_2_)" fill="#3C88EE" width="38.75" height="43.038"/>
	<g clip-path="url(#SVGID_2_)">
		<text transform="matrix(1 0 0 1 496.9844 117.0879)" font-family="'Helvetica'" font-size="34.0722">T</text>
	</g>
	<rect x="526.767" y="86.959" clip-path="url(#SVGID_2_)" fill="#3C88EE" width="38.751" height="43.038"/>
	<g clip-path="url(#SVGID_2_)">
		<text transform="matrix(1 0 0 1 535.7344 117.0879)" font-family="'Helvetica'" font-size="34.0722">T</text>
	</g>
	<rect x="565.518" y="86.959" clip-path="url(#SVGID_2_)" fill="#3C88EE" width="38.75" height="43.038"/>
	<g clip-path="url(#SVGID_2_)">
		<text transform="matrix(1 0 0 1 574.4863 117.0879)" font-family="'Helvetica'" font-size="34.0722">T</text>
	</g>
	<rect x="604.268" y="86.959" clip-path="url(#SVGID_2_)" fill="#3C88EE" width="38.75" height="43.038"/>
	<g clip-path="url(#SVGID_2_)">
		<text transform="matrix(1 0 0 1 613.2344 117.0879)" font-family="'Helvetica'" font-size="34.0722">T</text>
	</g>
	<rect x="643.018" y="86.959" clip-path="url(#SVGID_2_)" fill="#3C88EE" width="38.751" height="43.038"/>
	<g clip-path="url(#SVGID_2_)">
		<text transform="matrix(1 0 0 1 651.9863 117.0879)" font-family="'Helvetica'" font-size="34.0722">T</text>
	</g>
	<rect x="681.769" y="86.959" clip-path="url(#SVGID_2_)" fill="#3C88EE" width="38.75" height="43.038"/>
	<g clip-path="url(#SVGID_2_)">
		<text transform="matrix(1 0 0 1 690.7363 117.0879)" font-family="'Helvetica'" font-size="34.0722">T</text>
	</g>
	<rect x="720.522" y="86.959" clip-path="url(#SVGID_2_)" fill="#EB413C" width="44.442" height="43.038"/>
	<g clip-path="url(#SVGID_2_)">
		<text transform="matrix(1 0 0 1 729.4863 117.0879)" font-family="'Helvetica'" font-size="34.0722">G</text>
	</g>
	<rect x="764.961" y="86.959" clip-path="url(#SVGID_2_)" fill="#EB413C" width="44.441" height="43.038"/>
	<g clip-path="url(#SVGID_2_)">
		<text transform="matrix(1 0 0 1 773.9297 117.0879)" font-family="'Helvetica'" font-size="34.0722">G</text>
	</g>
	<g clip-path="url(#SVGID_2_)">
		<text transform="matrix(1 0 0 1 43.9785 160.127)"><tspan x="0" y="0" font-family="'Helvetica'" font-size="34.0722">rea</tspan><tspan x="49.245" y="0" font-family="'Helvetica'" font-size="34.0722" letter-spacing="9">d</tspan><tspan x="77.666" y="0" font-family="'Helvetica'" font-size="34.0722">2</tspan></text>
	</g>
	<rect x="367.949" y="130.001" clip-path="url(#SVGID_2_)" fill="#64F73F" width="40.658" height="43.038"/>
	<g clip-path="url(#SVGID_2_)">
		<text transform="matrix(1 0 0 1 376.9121 160.127)" font-family="'Helvetica'" font-size="34.0722">A</text>
	</g>
	<rect x="408.607" y="130.001" clip-path="url(#SVGID_2_)" fill="#64F73F" width="40.659" height="43.038"/>
	<g clip-path="url(#SVGID_2_)">
		<text transform="matrix(1 0 0 1 417.5742 160.127)"><tspan x="0" y="0" font-family="'Helvetica'" font-size="34.0722" letter-spacing="18">A</tspan><tspan x="41.602" y="0" font-family="'Helvetica'" font-size="34.0722">–</tspan></text>
	</g>
	<rect x="488.017" y="130.001" clip-path="url(#SVGID_2_)" fill="#3C88EE" width="38.75" height="43.038"/>
	<g clip-path="url(#SVGID_2_)">
		<text transform="matrix(1 0 0 1 496.9844 160.127)" font-family="'Helvetica'" font-size="34.0722">T</text>
	</g>
	<rect x="526.767" y="130.001" clip-path="url(#SVGID_2_)" fill="#3C88EE" width="38.751" height="43.038"/>
	<g clip-path="url(#SVGID_2_)">
		<text transform="matrix(1 0 0 1 535.7344 160.127)" font-family="'Helvetica'" font-size="34.0722">T</text>
	</g>
	<rect x="565.518" y="130.001" clip-path="url(#SVGID_2_)" fill="#3C88EE" width="38.75" height="43.038"/>
	<g clip-path="url(#SVGID_2_)">
		<text transform="matrix(1 0 0 1 574.4863 160.127)" font-family="'Helvetica'" font-size="34.0722">T</text>
	</g>
	<rect x="604.268" y="130.001" clip-path="url(#SVGID_2_)" fill="#3C88EE" width="38.75" height="43.038"/>
	<g clip-path="url(#SVGID_2_)">
		<text transform="matrix(1 0 0 1 613.2344 160.127)" font-family="'Helvetica'" font-size="34.0722">T</text>
	</g>
	<rect x="643.018" y="130.001" clip-path="url(#SVGID_2_)" fill="#3C88EE" width="38.751" height="43.038"/>
	<g clip-path="url(#SVGID_2_)">
		<text transform="matrix(1 0 0 1 651.9863 160.127)" font-family="'Helvetica'" font-size="34.0722">T</text>
	</g>
	<rect x="681.769" y="130.001" clip-path="url(#SVGID_2_)" fill="#3C88EE" width="38.75" height="43.038"/>
	<g clip-path="url(#SVGID_2_)">
		<text transform="matrix(1 0 0 1 690.7363 160.127)" font-family="'Helvetica'" font-size="34.0722">T</text>
	</g>
	<rect x="720.522" y="130.001" clip-path="url(#SVGID_2_)" fill="#EB413C" width="44.442" height="43.038"/>
	<g clip-path="url(#SVGID_2_)">
		<text transform="matrix(1 0 0 1 729.4863 160.127)" font-family="'Helvetica'" font-size="34.0722">G</text>
	</g>
	<rect x="764.961" y="130.001" clip-path="url(#SVGID_2_)" fill="#EB413C" width="44.441" height="43.038"/>
	<g clip-path="url(#SVGID_2_)">
		<text transform="matrix(1 0 0 1 773.9297 160.127)" font-family="'Helvetica'" font-size="34.0722">G</text>
	</g>
	<g clip-path="url(#SVGID_2_)">
		<text transform="matrix(1 0 0 1 43.9785 203.166)"><tspan x="0" y="0" font-family="'Helvetica'" font-size="34.0722">rea</tspan><tspan x="49.245" y="0" font-family="'Helvetica'" font-size="34.0722" letter-spacing="9">d</tspan><tspan x="77.666" y="0" font-family="'Helvetica'" font-size="34.0722">3</tspan></text>
	</g>
	<rect x="367.949" y="173.039" clip-path="url(#SVGID_2_)" fill="#64F73F" width="40.658" height="43.038"/>
	<g clip-path="url(#SVGID_2_)">
		<text transform="matrix(1 0 0 1 376.9121 203.166)" font-family="'Helvetica'" font-size="34.0722">A</text>
	</g>
	<rect x="408.607" y="173.039" clip-path="url(#SVGID_2_)" fill="#64F73F" width="40.659" height="43.038"/>
	<g clip-path="url(#SVGID_2_)">
		<text transform="matrix(1 0 0 1 417.5742 203.166)"><tspan x="0" y="0" font-family="'Helvetica'" font-size="34.0722" letter-spacing="18">A</tspan><tspan x="41.602" y="0" font-family="'Helvetica'" font-size="34.0722">–</tspan></text>
	</g>
	<rect x="488.017" y="173.039" clip-path="url(#SVGID_2_)" fill="#3C88EE" width="38.75" height="43.038"/>
	<g clip-path="url(#SVGID_2_)">
		<text transform="matrix(1 0 0 1 496.9844 203.166)" font-family="'Helvetica'" font-size="34.0722">T</text>
	</g>
	<rect x="526.767" y="173.039" clip-path="url(#SVGID_2_)" fill="#3C88EE" width="38.751" height="43.038"/>
	<g clip-path="url(#SVGID_2_)">
		<text transform="matrix(1 0 0 1 535.7344 203.166)" font-family="'Helvetica'" font-size="34.0722">T</text>
	</g>
	<rect x="565.518" y="173.039" clip-path="url(#SVGID_2_)" fill="#3C88EE" width="38.75" height="43.038"/>
	<g clip-path="url(#SVGID_2_)">
		<text transform="matrix(1 0 0 1 574.4863 203.166)" font-family="'Helvetica'" font-size="34.0722">T</text>
	</g>
	<rect x="604.268" y="173.039" clip-path="url(#SVGID_2_)" fill="#3C88EE" width="38.75" height="43.038"/>
	<g clip-path="url(#SVGID_2_)">
		<text transform="matrix(1 0 0 1 613.2344 203.166)" font-family="'Helvetica'" font-size="34.0722">T</text>
	</g>
	<rect x="643.018" y="173.039" clip-path="url(#SVGID_2_)" fill="#3C88EE" width="38.751" height="43.038"/>
	<g clip-path="url(#SVGID_2_)">
		<text transform="matrix(1 0 0 1 651.9863 203.166)" font-family="'Helvetica'" font-size="34.0722">T</text>
	</g>
	<rect x="681.769" y="173.039" clip-path="url(#SVGID_2_)" fill="#3C88EE" width="38.75" height="43.038"/>
	<g clip-path="url(#SVGID_2_)">
		<text transform="matrix(1 0 0 1 690.7363 203.166)" font-family="'Helvetica'" font-size="34.0722">T</text>
	</g>
	<rect x="720.522" y="173.039" clip-path="url(#SVGID_2_)" fill="#EB413C" width="44.442" height="43.038"/>
	<g clip-path="url(#SVGID_2_)">
		<text transform="matrix(1 0 0 1 729.4863 203.166)" font-family="'Helvetica'" font-size="34.0722">G</text>
	</g>
	<rect x="764.961" y="173.039" clip-path="url(#SVGID_2_)" fill="#EB413C" width="44.441" height="43.038"/>
	<g clip-path="url(#SVGID_2_)">
		<text transform="matrix(1 0 0 1 773.9297 203.166)" font-family="'Helvetica'" font-size="34.0722">G</text>
	</g>
	<g clip-path="url(#SVGID_2_)">
		<text transform="matrix(1 0 0 1 43.9785 246.2012)"><tspan x="0" y="0" font-family="'Helvetica'" font-size="34.0722">rea</tspan><tspan x="49.245" y="0" font-family="'Helvetica'" font-size="34.0722" letter-spacing="9">d</tspan><tspan x="77.666" y="0" font-family="'Helvetica'" font-size="34.0722">4</tspan></text>
	</g>
	<rect x="367.949" y="216.077" clip-path="url(#SVGID_2_)" fill="#64F73F" width="40.658" height="43.038"/>
	<g clip-path="url(#SVGID_2_)">
		<text transform="matrix(1 0 0 1 376.9121 246.2012)" font-family="'Helvetica'" font-size="34.0722">A</text>
	</g>
	<rect x="408.607" y="216.077" clip-path="url(#SVGID_2_)" fill="#64F73F" width="40.659" height="43.038"/>
	<g clip-path="url(#SVGID_2_)">
		<text transform="matrix(1 0 0 1 417.5742 246.2012)"><tspan x="0" y="0" font-family="'Helvetica'" font-size="34.0722" letter-spacing="18">A</tspan><tspan x="41.602" y="0" font-family="'Helvetica'" font-size="34.0722">–</tspan></text>
	</g>
	<rect x="488.017" y="216.077" clip-path="url(#SVGID_2_)" fill="#3C88EE" width="38.75" height="43.038"/>
	<g clip-path="url(#SVGID_2_)">
		<text transform="matrix(1 0 0 1 496.9844 246.2012)" font-family="'Helvetica'" font-size="34.0722">T</text>
	</g>
	<rect x="526.767" y="216.077" clip-path="url(#SVGID_2_)" fill="#3C88EE" width="38.751" height="43.038"/>
	<g clip-path="url(#SVGID_2_)">
		<text transform="matrix(1 0 0 1 535.7344 246.2012)" font-family="'Helvetica'" font-size="34.0722">T</text>
	</g>
	<rect x="565.518" y="216.077" clip-path="url(#SVGID_2_)" fill="#3C88EE" width="38.75" height="43.038"/>
	<g clip-path="url(#SVGID_2_)">
		<text transform="matrix(1 0 0 1 574.4863 246.2012)" font-family="'Helvetica'" font-size="34.0722">T</text>
	</g>
	<rect x="604.268" y="216.077" clip-path="url(#SVGID_2_)" fill="#3C88EE" width="38.75" height="43.038"/>
	<g clip-path="url(#SVGID_2_)">
		<text transform="matrix(1 0 0 1 613.2344 246.2012)" font-family="'Helvetica'" font-size="34.0722">T</text>
	</g>
	<rect x="643.018" y="216.077" clip-path="url(#SVGID_2_)" fill="#3C88EE" width="38.751" height="43.038"/>
	<g clip-path="url(#SVGID_2_)">
		<text transform="matrix(1 0 0 1 651.9863 246.2012)" font-family="'Helvetica'" font-size="34.0722">T</text>
	</g>
	<rect x="681.769" y="216.077" clip-path="url(#SVGID_2_)" fill="#3C88EE" width="38.75" height="43.038"/>
	<g clip-path="url(#SVGID_2_)">
		<text transform="matrix(1 0 0 1 690.7363 246.2012)" font-family="'Helvetica'" font-size="34.0722">T</text>
	</g>
	<rect x="720.522" y="216.077" clip-path="url(#SVGID_2_)" fill="#EB413C" width="44.442" height="43.038"/>
	<g clip-path="url(#SVGID_2_)">
		<text transform="matrix(1 0 0 1 729.4863 246.2012)" font-family="'Helvetica'" font-size="34.0722">G</text>
	</g>
	<rect x="764.961" y="216.077" clip-path="url(#SVGID_2_)" fill="#EB413C" width="44.441" height="43.038"/>
	<g clip-path="url(#SVGID_2_)">
		<text transform="matrix(1 0 0 1 773.9297 246.2012)" font-family="'Helvetica'" font-size="34.0722">G</text>
	</g>
</g>
</svg>
