<?xml version="1.0" encoding="utf-8"?>
<!-- Generator: Adobe Illustrator 16.0.4, SVG Export Plug-In . SVG Version: 6.00 Build 0)  -->
<!DOCTYPE svg PUBLIC "-//W3C//DTD SVG 1.1//EN" "http://www.w3.org/Graphics/SVG/1.1/DTD/svg11.dtd">
<svg version="1.1" id="Layer_1" xmlns="http://www.w3.org/2000/svg" xmlns:xlink="http://www.w3.org/1999/xlink" x="0px" y="0px"
	 width="1149px" height="217px" viewBox="0 0 1149 217" enable-background="new 0 0 1149 217" xml:space="preserve">
<g>
	<defs>
		<rect id="SVGID_1_" width="1149" height="217"/>
	</defs>
	<clipPath id="SVGID_2_">
		<use xlink:href="#SVGID_1_"  overflow="visible"/>
	</clipPath>
	<g clip-path="url(#SVGID_2_)">
		<text transform="matrix(1 0 0 1 -2.3242 31.0117)"><tspan x="0" y="0" font-family="'Helvetica'" font-size="34.0722">re</tspan><tspan x="30.295" y="0" font-family="'Helvetica'" font-size="34.0722" letter-spacing="-1">f</tspan><tspan x="38.74" y="0" font-family="'Helvetica'" font-size="34.0722">erenc</tspan><tspan x="123.97" y="0" font-family="'Helvetica'" font-size="34.0722" letter-spacing="9">e</tspan><tspan x="152.357" y="0" font-family="'Helvetica'" font-size="34.0722">1</tspan></text>
	</g>
	<rect x="187.417" y="0.884" clip-path="url(#SVGID_2_)" fill="#64F73F" width="40.658" height="43.038"/>
	<g clip-path="url(#SVGID_2_)">
		<text transform="matrix(1 0 0 1 196.3809 31.0117)" font-family="'Helvetica'" font-size="34.0722">A</text>
	</g>
	<rect x="228.075" y="0.884" clip-path="url(#SVGID_2_)" fill="#EB413C" width="44.442" height="43.038"/>
	<g clip-path="url(#SVGID_2_)">
		<text transform="matrix(1 0 0 1 237.0391 31.0117)" font-family="'Helvetica'" font-size="34.0722">G</text>
	</g>
	<rect x="272.513" y="0.884" clip-path="url(#SVGID_2_)" fill="#64F73F" width="40.659" height="43.038"/>
	<g clip-path="url(#SVGID_2_)">
		<text transform="matrix(1 0 0 1 281.4805 31.0117)" font-family="'Helvetica'" font-size="34.0722">A</text>
	</g>
	<rect x="313.171" y="0.884" clip-path="url(#SVGID_2_)" fill="#3C88EE" width="38.75" height="43.038"/>
	<g clip-path="url(#SVGID_2_)">
		<text transform="matrix(1 0 0 1 322.1387 31.0117)" font-family="'Helvetica'" font-size="34.0722">T</text>
	</g>
	<rect x="351.922" y="0.884" clip-path="url(#SVGID_2_)" fill="#EB413C" width="44.442" height="43.038"/>
	<g clip-path="url(#SVGID_2_)">
		<text transform="matrix(1 0 0 1 360.8906 31.0117)" font-family="'Helvetica'" font-size="34.0722">G</text>
	</g>
	<rect x="396.364" y="0.884" clip-path="url(#SVGID_2_)" fill="#64F73F" width="40.658" height="43.038"/>
	<g clip-path="url(#SVGID_2_)">
		<text transform="matrix(1 0 0 1 405.332 31.0117)" font-family="'Helvetica'" font-size="34.0722">A</text>
	</g>
	<rect x="437.022" y="0.884" clip-path="url(#SVGID_2_)" fill="#64F73F" width="40.658" height="43.038"/>
	<g clip-path="url(#SVGID_2_)">
		<text transform="matrix(1 0 0 1 445.9902 31.0117)" font-family="'Helvetica'" font-size="34.0722">A</text>
	</g>
	<rect x="477.681" y="0.884" clip-path="url(#SVGID_2_)" fill="#EB413C" width="44.442" height="43.038"/>
	<g clip-path="url(#SVGID_2_)">
		<text transform="matrix(1 0 0 1 486.6484 31.0117)" font-family="'Helvetica'" font-size="34.0722">G</text>
	</g>
	<rect x="522.123" y="0.884" clip-path="url(#SVGID_2_)" fill="#64F73F" width="40.658" height="43.038"/>
	<g clip-path="url(#SVGID_2_)">
		<text transform="matrix(1 0 0 1 531.0879 31.0117)" font-family="'Helvetica'" font-size="34.0722">A</text>
	</g>
	<rect x="562.781" y="0.884" clip-path="url(#SVGID_2_)" fill="#FFB340" width="44.442" height="43.038"/>
	<g clip-path="url(#SVGID_2_)">
		<text transform="matrix(1 0 0 1 572.6992 31.0117)" font-family="'Helvetica'" font-size="34.0722">C</text>
	</g>
	<rect x="607.22" y="0.884" clip-path="url(#SVGID_2_)" fill="#3C88EE" width="38.75" height="43.038"/>
	<g clip-path="url(#SVGID_2_)">
		<text transform="matrix(1 0 0 1 616.1875 31.0117)" font-family="'Helvetica'" font-size="34.0722">T</text>
	</g>
	<rect x="645.97" y="0.884" clip-path="url(#SVGID_2_)" fill="#3C88EE" width="40.658" height="43.038"/>
	<g clip-path="url(#SVGID_2_)">
		<text transform="matrix(1 0 0 1 655.8926 31.0117)" font-family="'Helvetica'" font-size="34.0722">T</text>
	</g>
	<rect x="686.629" y="0.884" clip-path="url(#SVGID_2_)" fill="#EB413C" width="44.441" height="43.038"/>
	<g clip-path="url(#SVGID_2_)">
		<text transform="matrix(1 0 0 1 695.5957 31.0117)" font-family="'Helvetica'" font-size="34.0722">G</text>
	</g>
	<rect x="731.07" y="0.884" clip-path="url(#SVGID_2_)" fill="#64F73F" width="40.658" height="43.038"/>
	<g clip-path="url(#SVGID_2_)">
		<text transform="matrix(1 0 0 1 740.0391 31.0117)" font-family="'Helvetica'" font-size="34.0722">A</text>
	</g>
	<rect x="771.729" y="0.884" clip-path="url(#SVGID_2_)" fill="#EB413C" width="44.442" height="43.038"/>
	<g clip-path="url(#SVGID_2_)">
		<text transform="matrix(1 0 0 1 780.6973 31.0117)" font-family="'Helvetica'" font-size="34.0722">G</text>
	</g>
	<rect x="816.171" y="0.884" clip-path="url(#SVGID_2_)" fill="#EB413C" width="44.442" height="43.038"/>
	<g clip-path="url(#SVGID_2_)">
		<text transform="matrix(1 0 0 1 825.1367 31.0117)" font-family="'Helvetica'" font-size="34.0722">G</text>
	</g>
	<rect x="860.609" y="0.884" clip-path="url(#SVGID_2_)" fill="#64F73F" width="40.658" height="43.038"/>
	<g clip-path="url(#SVGID_2_)">
		<text transform="matrix(1 0 0 1 869.5762 31.0117)" font-family="'Helvetica'" font-size="34.0722">A</text>
	</g>
	<rect x="901.268" y="0.884" clip-path="url(#SVGID_2_)" fill="#64F73F" width="40.658" height="43.038"/>
	<g clip-path="url(#SVGID_2_)">
		<text transform="matrix(1 0 0 1 910.2344 31.0117)" font-family="'Helvetica'" font-size="34.0722">A</text>
	</g>
	<rect x="941.926" y="0.884" clip-path="url(#SVGID_2_)" fill="#EB413C" width="44.442" height="43.038"/>
	<g clip-path="url(#SVGID_2_)">
		<text transform="matrix(1 0 0 1 950.8926 31.0117)" font-family="'Helvetica'" font-size="34.0722">G</text>
	</g>
	<rect x="986.368" y="0.884" clip-path="url(#SVGID_2_)" fill="#3C88EE" width="38.75" height="43.038"/>
	<g clip-path="url(#SVGID_2_)">
		<text transform="matrix(1 0 0 1 995.3359 31.0117)" font-family="'Helvetica'" font-size="34.0722">T</text>
	</g>
	<rect x="1025.118" y="0.884" clip-path="url(#SVGID_2_)" fill="#64F73F" width="40.658" height="43.038"/>
	<g clip-path="url(#SVGID_2_)">
		<text transform="matrix(1 0 0 1 1034.0879 31.0117)" font-family="'Helvetica'" font-size="34.0722">A</text>
	</g>
	<rect x="1065.777" y="0.884" clip-path="url(#SVGID_2_)" fill="#FFB340" width="42.533" height="43.038"/>
	<g clip-path="url(#SVGID_2_)">
		<text transform="matrix(1 0 0 1 1074.7461 31.0117)" font-family="'Helvetica'" font-size="34.0722">C</text>
	</g>
	<rect x="1108.311" y="0.884" clip-path="url(#SVGID_2_)" fill="#64F73F" width="40.659" height="43.038"/>
	<g clip-path="url(#SVGID_2_)">
		<text transform="matrix(1 0 0 1 1117.2754 31.0117)" font-family="'Helvetica'" font-size="34.0722">A</text>
	</g>
	<g clip-path="url(#SVGID_2_)">
		<text transform="matrix(1 0 0 1 -2.3242 74.0488)"><tspan x="0" y="0" font-family="'Helvetica'" font-size="34.0722">re</tspan><tspan x="30.295" y="0" font-family="'Helvetica'" font-size="34.0722" letter-spacing="-1">f</tspan><tspan x="38.74" y="0" font-family="'Helvetica'" font-size="34.0722">erenc</tspan><tspan x="123.97" y="0" font-family="'Helvetica'" font-size="34.0722" letter-spacing="9">e</tspan><tspan x="152.357" y="0" font-family="'Helvetica'" font-size="34.0722">2</tspan></text>
	</g>
	<rect x="187.417" y="43.921" clip-path="url(#SVGID_2_)" fill="#64F73F" width="40.658" height="43.038"/>
	<g clip-path="url(#SVGID_2_)">
		<text transform="matrix(1 0 0 1 196.3809 74.0488)" font-family="'Helvetica'" font-size="34.0722">A</text>
	</g>
	<rect x="228.075" y="43.921" clip-path="url(#SVGID_2_)" fill="#EB413C" width="44.442" height="43.038"/>
	<g clip-path="url(#SVGID_2_)">
		<text transform="matrix(1 0 0 1 237.0391 74.0488)" font-family="'Helvetica'" font-size="34.0722">G</text>
	</g>
	<rect x="272.513" y="43.921" clip-path="url(#SVGID_2_)" fill="#64F73F" width="40.659" height="43.038"/>
	<g clip-path="url(#SVGID_2_)">
		<text transform="matrix(1 0 0 1 281.4805 74.0488)" font-family="'Helvetica'" font-size="34.0722">A</text>
	</g>
	<rect x="313.171" y="43.921" clip-path="url(#SVGID_2_)" fill="#3C88EE" width="38.75" height="43.038"/>
	<g clip-path="url(#SVGID_2_)">
		<text transform="matrix(1 0 0 1 322.1387 74.0488)" font-family="'Helvetica'" font-size="34.0722">T</text>
	</g>
	<rect x="351.922" y="43.921" clip-path="url(#SVGID_2_)" fill="#EB413C" width="44.442" height="43.038"/>
	<g clip-path="url(#SVGID_2_)">
		<text transform="matrix(1 0 0 1 360.8906 74.0488)" font-family="'Helvetica'" font-size="34.0722">G</text>
	</g>
	<rect x="396.364" y="43.921" clip-path="url(#SVGID_2_)" fill="#64F73F" width="40.658" height="43.038"/>
	<g clip-path="url(#SVGID_2_)">
		<text transform="matrix(1 0 0 1 405.332 74.0488)" font-family="'Helvetica'" font-size="34.0722">A</text>
	</g>
	<rect x="437.022" y="43.921" clip-path="url(#SVGID_2_)" fill="#64F73F" width="40.658" height="43.038"/>
	<g clip-path="url(#SVGID_2_)">
		<text transform="matrix(1 0 0 1 445.9902 74.0488)" font-family="'Helvetica'" font-size="34.0722">A</text>
	</g>
	<rect x="477.681" y="43.921" clip-path="url(#SVGID_2_)" fill="#EB413C" width="44.442" height="43.038"/>
	<g clip-path="url(#SVGID_2_)">
		<text transform="matrix(1 0 0 1 486.6484 74.0488)" font-family="'Helvetica'" font-size="34.0722">G</text>
	</g>
	<rect x="522.123" y="43.921" clip-path="url(#SVGID_2_)" fill="#64F73F" width="40.658" height="43.038"/>
	<g clip-path="url(#SVGID_2_)">
		<text transform="matrix(1 0 0 1 531.0879 74.0488)"><tspan x="0" y="0" font-family="'Helvetica'" font-size="34.0722" letter-spacing="21">A</tspan><tspan x="44.43" y="0" font-family="'Helvetica'" font-size="34.0722" letter-spacing="22">–</tspan><tspan x="86.003" y="0" font-family="'Helvetica'" font-size="34.0722" letter-spacing="20">–</tspan><tspan x="125.702" y="0" font-family="'Helvetica'" font-size="34.0722">–</tspan></text>
	</g>
	<rect x="686.629" y="43.921" clip-path="url(#SVGID_2_)" fill="#EB413C" width="44.441" height="43.038"/>
	<g clip-path="url(#SVGID_2_)">
		<text transform="matrix(1 0 0 1 695.5957 74.0488)" font-family="'Helvetica'" font-size="34.0722">G</text>
	</g>
	<rect x="731.07" y="43.921" clip-path="url(#SVGID_2_)" fill="#64F73F" width="40.658" height="43.038"/>
	<g clip-path="url(#SVGID_2_)">
		<text transform="matrix(1 0 0 1 740.0391 74.0488)" font-family="'Helvetica'" font-size="34.0722">A</text>
	</g>
	<rect x="771.729" y="43.921" clip-path="url(#SVGID_2_)" fill="#EB413C" width="44.442" height="43.038"/>
	<g clip-path="url(#SVGID_2_)">
		<text transform="matrix(1 0 0 1 780.6973 74.0488)" font-family="'Helvetica'" font-size="34.0722">G</text>
	</g>
	<rect x="816.171" y="43.921" clip-path="url(#SVGID_2_)" fill="#EB413C" width="44.442" height="43.038"/>
	<g clip-path="url(#SVGID_2_)">
		<text transform="matrix(1 0 0 1 825.1367 74.0488)" font-family="'Helvetica'" font-size="34.0722">G</text>
	</g>
	<rect x="860.609" y="43.921" clip-path="url(#SVGID_2_)" fill="#64F73F" width="40.658" height="43.038"/>
	<g clip-path="url(#SVGID_2_)">
		<text transform="matrix(1 0 0 1 869.5762 74.0488)" font-family="'Helvetica'" font-size="34.0722">A</text>
	</g>
	<rect x="901.268" y="43.921" clip-path="url(#SVGID_2_)" fill="#64F73F" width="40.658" height="43.038"/>
	<g clip-path="url(#SVGID_2_)">
		<text transform="matrix(1 0 0 1 910.2344 74.0488)" font-family="'Helvetica'" font-size="34.0722">A</text>
	</g>
	<rect x="941.926" y="43.921" clip-path="url(#SVGID_2_)" fill="#EB413C" width="44.442" height="43.038"/>
	<g clip-path="url(#SVGID_2_)">
		<text transform="matrix(1 0 0 1 950.8926 74.0488)" font-family="'Helvetica'" font-size="34.0722">G</text>
	</g>
	<rect x="986.368" y="43.921" clip-path="url(#SVGID_2_)" fill="#3C88EE" width="38.75" height="43.038"/>
	<g clip-path="url(#SVGID_2_)">
		<text transform="matrix(1 0 0 1 995.3359 74.0488)" font-family="'Helvetica'" font-size="34.0722">T</text>
	</g>
	<rect x="1025.118" y="43.921" clip-path="url(#SVGID_2_)" fill="#64F73F" width="40.658" height="43.038"/>
	<g clip-path="url(#SVGID_2_)">
		<text transform="matrix(1 0 0 1 1034.0879 74.0488)" font-family="'Helvetica'" font-size="34.0722">A</text>
	</g>
	<rect x="1065.777" y="43.921" clip-path="url(#SVGID_2_)" fill="#FFB340" width="42.533" height="43.038"/>
	<g clip-path="url(#SVGID_2_)">
		<text transform="matrix(1 0 0 1 1074.7461 74.0488)" font-family="'Helvetica'" font-size="34.0722">C</text>
	</g>
	<rect x="1108.311" y="43.921" clip-path="url(#SVGID_2_)" fill="#64F73F" width="40.659" height="43.038"/>
	<g clip-path="url(#SVGID_2_)">
		<text transform="matrix(1 0 0 1 1117.2754 74.0488)" font-family="'Helvetica'" font-size="34.0722">A</text>
	</g>
	<g clip-path="url(#SVGID_2_)">
		<text transform="matrix(1 0 0 1 72.3926 160.127)"><tspan x="0" y="0" font-family="'Helvetica'" font-size="34.0722">rea</tspan><tspan x="49.245" y="0" font-family="'Helvetica'" font-size="34.0722" letter-spacing="9">d</tspan><tspan x="77.667" y="0" font-family="'Helvetica'" font-size="34.0722">1</tspan></text>
	</g>
	<rect x="645.97" y="130.001" clip-path="url(#SVGID_2_)" fill="#64F73F" width="40.658" height="43.038"/>
	<g clip-path="url(#SVGID_2_)">
		<text transform="matrix(1 0 0 1 654.9375 160.127)" font-family="'Helvetica'" font-size="34.0722">A</text>
	</g>
	<rect x="686.629" y="130.001" clip-path="url(#SVGID_2_)" fill="#EB413C" width="44.441" height="43.038"/>
	<g clip-path="url(#SVGID_2_)">
		<text transform="matrix(1 0 0 1 695.5957 160.127)" font-family="'Helvetica'" font-size="34.0722">G</text>
	</g>
	<rect x="731.07" y="130.001" clip-path="url(#SVGID_2_)" fill="#64F73F" width="40.658" height="43.038"/>
	<g clip-path="url(#SVGID_2_)">
		<text transform="matrix(1 0 0 1 740.0391 160.127)" font-family="'Helvetica'" font-size="34.0722">A</text>
	</g>
	<rect x="771.729" y="130.001" clip-path="url(#SVGID_2_)" fill="#EB413C" width="44.442" height="43.038"/>
	<g clip-path="url(#SVGID_2_)">
		<text transform="matrix(1 0 0 1 780.6973 160.127)" font-family="'Helvetica'" font-size="34.0722">G</text>
	</g>
	<rect x="816.171" y="130.001" clip-path="url(#SVGID_2_)" fill="#EB413C" width="44.442" height="43.038"/>
	<g clip-path="url(#SVGID_2_)">
		<text transform="matrix(1 0 0 1 825.1367 160.127)" font-family="'Helvetica'" font-size="34.0722">G</text>
	</g>
	<rect x="860.609" y="130.001" clip-path="url(#SVGID_2_)" fill="#64F73F" width="40.658" height="43.038"/>
	<g clip-path="url(#SVGID_2_)">
		<text transform="matrix(1 0 0 1 869.5762 160.127)" font-family="'Helvetica'" font-size="34.0722">A</text>
	</g>
	<g clip-path="url(#SVGID_2_)">
		<text transform="matrix(1 0 0 1 72.3926 203.1641)"><tspan x="0" y="0" font-family="'Helvetica'" font-size="34.0722">rea</tspan><tspan x="49.245" y="0" font-family="'Helvetica'" font-size="34.0722" letter-spacing="9">d</tspan><tspan x="77.667" y="0" font-family="'Helvetica'" font-size="34.0722">2</tspan></text>
	</g>
	<rect x="351.922" y="173.039" clip-path="url(#SVGID_2_)" fill="#EB413C" width="44.442" height="43.038"/>
	<g clip-path="url(#SVGID_2_)">
		<text transform="matrix(1 0 0 1 360.8906 203.1641)" font-family="'Helvetica'" font-size="34.0722">G</text>
	</g>
	<rect x="396.364" y="173.039" clip-path="url(#SVGID_2_)" fill="#64F73F" width="40.658" height="43.038"/>
	<g clip-path="url(#SVGID_2_)">
		<text transform="matrix(1 0 0 1 405.332 203.1641)" font-family="'Helvetica'" font-size="34.0722">A</text>
	</g>
	<rect x="437.022" y="173.039" clip-path="url(#SVGID_2_)" fill="#64F73F" width="40.658" height="43.038"/>
	<g clip-path="url(#SVGID_2_)">
		<text transform="matrix(1 0 0 1 445.9902 203.1641)" font-family="'Helvetica'" font-size="34.0722">A</text>
	</g>
	<rect x="477.681" y="173.039" clip-path="url(#SVGID_2_)" fill="#EB413C" width="44.442" height="43.038"/>
	<g clip-path="url(#SVGID_2_)">
		<text transform="matrix(1 0 0 1 486.6484 203.1641)" font-family="'Helvetica'" font-size="34.0722">G</text>
	</g>
	<rect x="522.123" y="173.039" clip-path="url(#SVGID_2_)" fill="#64F73F" width="40.658" height="43.038"/>
	<g clip-path="url(#SVGID_2_)">
		<text transform="matrix(1 0 0 1 531.0879 203.1641)" font-family="'Helvetica'" font-size="34.0722">A</text>
	</g>
	<rect x="562.781" y="173.039" clip-path="url(#SVGID_2_)" fill="#EB413C" width="44.442" height="43.038"/>
	<g clip-path="url(#SVGID_2_)">
		<text transform="matrix(1 0 0 1 571.7461 203.1641)" font-family="'Helvetica'" font-size="34.0722">G</text>
	</g>
</g>
</svg>
