<?xml version="1.0" encoding="utf-8"?>
<!-- Generator: Adobe Illustrator 16.0.4, SVG Export Plug-In . SVG Version: 6.00 Build 0)  -->
<!DOCTYPE svg PUBLIC "-//W3C//DTD SVG 1.1//EN" "http://www.w3.org/Graphics/SVG/1.1/DTD/svg11.dtd">
<svg version="1.1" id="Layer_1" xmlns="http://www.w3.org/2000/svg" xmlns:xlink="http://www.w3.org/1999/xlink" x="0px" y="0px"
	 width="1146px" height="217px" viewBox="0 0 1146 217" enable-background="new 0 0 1146 217" xml:space="preserve">
<g>
	<defs>
		<rect id="SVGID_1_" width="1146" height="217"/>
	</defs>
	<clipPath id="SVGID_2_">
		<use xlink:href="#SVGID_1_"  overflow="visible"/>
	</clipPath>
	<g clip-path="url(#SVGID_2_)">
		<text transform="matrix(1 0 0 1 -2.3242 31.0117)"><tspan x="0" y="0" font-family="'Helvetica'" font-size="34.0722">re</tspan><tspan x="30.295" y="0" font-family="'Helvetica'" font-size="34.0722" letter-spacing="-1">f</tspan><tspan x="38.74" y="0" font-family="'Helvetica'" font-size="34.0722">erenc</tspan><tspan x="123.97" y="0" font-family="'Helvetica'" font-size="34.0722" letter-spacing="9">e</tspan><tspan x="152.357" y="0" font-family="'Helvetica'" font-size="34.0722">1</tspan></text>
	</g>
	<rect x="187.417" y="0.884" clip-path="url(#SVGID_2_)" fill="#64F73F" width="40.658" height="43.038"/>
	<g clip-path="url(#SVGID_2_)">
		<text transform="matrix(1 0 0 1 196.3809 31.0117)" font-family="'Helvetica'" font-size="34.0722">A</text>
	</g>
	<rect x="228.075" y="0.884" clip-path="url(#SVGID_2_)" fill="#EB413C" width="44.442" height="43.038"/>
	<g clip-path="url(#SVGID_2_)">
		<text transform="matrix(1 0 0 1 237.0391 31.0117)" font-family="'Helvetica'" font-size="34.0722">G</text>
	</g>
	<rect x="272.513" y="0.884" clip-path="url(#SVGID_2_)" fill="#64F73F" width="40.659" height="43.038"/>
	<g clip-path="url(#SVGID_2_)">
		<text transform="matrix(1 0 0 1 281.4824 31.0117)" font-family="'Helvetica'" font-size="34.0722">A</text>
	</g>
	<rect x="313.171" y="0.884" clip-path="url(#SVGID_2_)" fill="#3C88EE" width="38.75" height="43.038"/>
	<g clip-path="url(#SVGID_2_)">
		<text transform="matrix(1 0 0 1 322.1406 31.0117)" font-family="'Helvetica'" font-size="34.0722">T</text>
	</g>
	<rect x="351.922" y="0.884" clip-path="url(#SVGID_2_)" fill="#EB413C" width="44.442" height="43.038"/>
	<g clip-path="url(#SVGID_2_)">
		<text transform="matrix(1 0 0 1 360.8906 31.0117)" font-family="'Helvetica'" font-size="34.0722">G</text>
	</g>
	<rect x="396.364" y="0.884" clip-path="url(#SVGID_2_)" fill="#64F73F" width="40.658" height="43.038"/>
	<g clip-path="url(#SVGID_2_)">
		<text transform="matrix(1 0 0 1 405.332 31.0117)" font-family="'Helvetica'" font-size="34.0722">A</text>
	</g>
	<rect x="437.022" y="0.884" clip-path="url(#SVGID_2_)" fill="#64F73F" width="40.658" height="43.038"/>
	<g clip-path="url(#SVGID_2_)">
		<text transform="matrix(1 0 0 1 445.9902 31.0117)" font-family="'Helvetica'" font-size="34.0722">A</text>
	</g>
	<rect x="477.681" y="0.884" clip-path="url(#SVGID_2_)" fill="#EB413C" width="44.442" height="43.038"/>
	<g clip-path="url(#SVGID_2_)">
		<text transform="matrix(1 0 0 1 486.6484 31.0117)" font-family="'Helvetica'" font-size="34.0722">G</text>
	</g>
	<rect x="522.123" y="0.884" clip-path="url(#SVGID_2_)" fill="#64F73F" width="40.658" height="43.038"/>
	<g clip-path="url(#SVGID_2_)">
		<text transform="matrix(1 0 0 1 531.0879 31.0117)" font-family="'Helvetica'" font-size="34.0722">A</text>
	</g>
	<rect x="562.781" y="0.884" clip-path="url(#SVGID_2_)" fill="#FFB340" width="42.534" height="43.038"/>
	<g clip-path="url(#SVGID_2_)">
		<text transform="matrix(1 0 0 1 571.7461 31.0117)" font-family="'Helvetica'" font-size="34.0722">C</text>
	</g>
	<rect x="605.312" y="0.884" clip-path="url(#SVGID_2_)" fill="#3C88EE" width="38.751" height="43.038"/>
	<g clip-path="url(#SVGID_2_)">
		<text transform="matrix(1 0 0 1 614.2793 31.0117)" font-family="'Helvetica'" font-size="34.0722">T</text>
	</g>
	<rect x="644.065" y="0.884" clip-path="url(#SVGID_2_)" fill="#3C88EE" width="38.751" height="43.038"/>
	<g clip-path="url(#SVGID_2_)">
		<text transform="matrix(1 0 0 1 653.0312 31.0117)" font-family="'Helvetica'" font-size="34.0722">T</text>
	</g>
	<rect x="682.816" y="0.884" clip-path="url(#SVGID_2_)" fill="#EB413C" width="44.441" height="43.038"/>
	<g clip-path="url(#SVGID_2_)">
		<text transform="matrix(1 0 0 1 691.7793 31.0117)" font-family="'Helvetica'" font-size="34.0722">G</text>
	</g>
	<rect x="727.254" y="0.884" clip-path="url(#SVGID_2_)" fill="#64F73F" width="40.659" height="43.038"/>
	<g clip-path="url(#SVGID_2_)">
		<text transform="matrix(1 0 0 1 736.2227 31.0117)" font-family="'Helvetica'" font-size="34.0722">A</text>
	</g>
	<rect x="767.913" y="0.884" clip-path="url(#SVGID_2_)" fill="#EB413C" width="44.441" height="43.038"/>
	<g clip-path="url(#SVGID_2_)">
		<text transform="matrix(1 0 0 1 776.8809 31.0117)" font-family="'Helvetica'" font-size="34.0722">G</text>
	</g>
	<rect x="812.354" y="0.884" clip-path="url(#SVGID_2_)" fill="#EB413C" width="44.442" height="43.038"/>
	<g clip-path="url(#SVGID_2_)">
		<text transform="matrix(1 0 0 1 821.3203 31.0117)" font-family="'Helvetica'" font-size="34.0722">G</text>
	</g>
	<rect x="856.793" y="0.884" clip-path="url(#SVGID_2_)" fill="#64F73F" width="40.658" height="43.038"/>
	<g clip-path="url(#SVGID_2_)">
		<text transform="matrix(1 0 0 1 865.7617 31.0117)" font-family="'Helvetica'" font-size="34.0722">A</text>
	</g>
	<rect x="897.451" y="0.884" clip-path="url(#SVGID_2_)" fill="#64F73F" width="40.659" height="43.038"/>
	<g clip-path="url(#SVGID_2_)">
		<text transform="matrix(1 0 0 1 906.4199 31.0117)" font-family="'Helvetica'" font-size="34.0722">A</text>
	</g>
	<rect x="938.11" y="0.884" clip-path="url(#SVGID_2_)" fill="#EB413C" width="44.441" height="43.038"/>
	<g clip-path="url(#SVGID_2_)">
		<text transform="matrix(1 0 0 1 947.0781 31.0117)" font-family="'Helvetica'" font-size="34.0722">G</text>
	</g>
	<rect x="982.552" y="0.884" clip-path="url(#SVGID_2_)" fill="#3C88EE" width="38.751" height="43.038"/>
	<g clip-path="url(#SVGID_2_)">
		<text transform="matrix(1 0 0 1 991.5195 31.0117)" font-family="'Helvetica'" font-size="34.0722">T</text>
	</g>
	<rect x="1021.302" y="0.884" clip-path="url(#SVGID_2_)" fill="#64F73F" width="40.659" height="43.038"/>
	<g clip-path="url(#SVGID_2_)">
		<text transform="matrix(1 0 0 1 1030.2715 31.0117)" font-family="'Helvetica'" font-size="34.0722">A</text>
	</g>
	<rect x="1061.961" y="0.884" clip-path="url(#SVGID_2_)" fill="#FFB340" width="42.534" height="43.038"/>
	<g clip-path="url(#SVGID_2_)">
		<text transform="matrix(1 0 0 1 1070.9297 31.0117)" font-family="'Helvetica'" font-size="34.0722">C</text>
	</g>
	<rect x="1104.495" y="0.884" clip-path="url(#SVGID_2_)" fill="#64F73F" width="40.658" height="43.038"/>
	<g clip-path="url(#SVGID_2_)">
		<text transform="matrix(1 0 0 1 1113.4629 31.0117)" font-family="'Helvetica'" font-size="34.0722">A</text>
	</g>
	<g clip-path="url(#SVGID_2_)">
		<text transform="matrix(1 0 0 1 -2.3242 74.0488)"><tspan x="0" y="0" font-family="'Helvetica'" font-size="34.0722">re</tspan><tspan x="30.295" y="0" font-family="'Helvetica'" font-size="34.0722" letter-spacing="-1">f</tspan><tspan x="38.74" y="0" font-family="'Helvetica'" font-size="34.0722">erenc</tspan><tspan x="123.97" y="0" font-family="'Helvetica'" font-size="34.0722" letter-spacing="9">e</tspan><tspan x="152.357" y="0" font-family="'Helvetica'" font-size="34.0722">2</tspan></text>
	</g>
	<rect x="187.417" y="43.921" clip-path="url(#SVGID_2_)" fill="#64F73F" width="40.658" height="43.038"/>
	<g clip-path="url(#SVGID_2_)">
		<text transform="matrix(1 0 0 1 196.3809 74.0488)" font-family="'Helvetica'" font-size="34.0722">A</text>
	</g>
	<rect x="228.075" y="43.921" clip-path="url(#SVGID_2_)" fill="#EB413C" width="44.442" height="43.038"/>
	<g clip-path="url(#SVGID_2_)">
		<text transform="matrix(1 0 0 1 237.0391 74.0488)" font-family="'Helvetica'" font-size="34.0722">G</text>
	</g>
	<rect x="272.513" y="43.921" clip-path="url(#SVGID_2_)" fill="#64F73F" width="40.659" height="43.038"/>
	<g clip-path="url(#SVGID_2_)">
		<text transform="matrix(1 0 0 1 281.4824 74.0488)" font-family="'Helvetica'" font-size="34.0722">A</text>
	</g>
	<rect x="313.171" y="43.921" clip-path="url(#SVGID_2_)" fill="#3C88EE" width="38.75" height="43.038"/>
	<g clip-path="url(#SVGID_2_)">
		<text transform="matrix(1 0 0 1 322.1406 74.0488)" font-family="'Helvetica'" font-size="34.0722">T</text>
	</g>
	<rect x="351.922" y="43.921" clip-path="url(#SVGID_2_)" fill="#EB413C" width="44.442" height="43.038"/>
	<g clip-path="url(#SVGID_2_)">
		<text transform="matrix(1 0 0 1 360.8906 74.0488)" font-family="'Helvetica'" font-size="34.0722">G</text>
	</g>
	<rect x="396.364" y="43.921" clip-path="url(#SVGID_2_)" fill="#64F73F" width="40.658" height="43.038"/>
	<g clip-path="url(#SVGID_2_)">
		<text transform="matrix(1 0 0 1 405.332 74.0488)" font-family="'Helvetica'" font-size="34.0722">A</text>
	</g>
	<rect x="437.022" y="43.921" clip-path="url(#SVGID_2_)" fill="#64F73F" width="40.658" height="43.038"/>
	<g clip-path="url(#SVGID_2_)">
		<text transform="matrix(1 0 0 1 445.9902 74.0488)" font-family="'Helvetica'" font-size="34.0722">A</text>
	</g>
	<rect x="477.681" y="43.921" clip-path="url(#SVGID_2_)" fill="#EB413C" width="44.442" height="43.038"/>
	<g clip-path="url(#SVGID_2_)">
		<text transform="matrix(1 0 0 1 486.6484 74.0488)" font-family="'Helvetica'" font-size="34.0722">G</text>
	</g>
	<rect x="522.123" y="43.921" clip-path="url(#SVGID_2_)" fill="#64F73F" width="40.658" height="43.038"/>
	<g clip-path="url(#SVGID_2_)">
		<text transform="matrix(1 0 0 1 531.0879 74.0488)"><tspan x="0" y="0" font-family="'Helvetica'" font-size="34.0722" letter-spacing="20">A</tspan><tspan x="43.476" y="0" font-family="'Helvetica'" font-size="34.0722" letter-spacing="21">–</tspan><tspan x="84.095" y="0" font-family="'Helvetica'" font-size="34.0722" letter-spacing="19">–</tspan><tspan x="122.807" y="0" font-family="'Helvetica'" font-size="34.0722">–</tspan></text>
	</g>
	<rect x="682.816" y="43.921" clip-path="url(#SVGID_2_)" fill="#EB413C" width="44.441" height="43.038"/>
	<g clip-path="url(#SVGID_2_)">
		<text transform="matrix(1 0 0 1 691.7793 74.0488)" font-family="'Helvetica'" font-size="34.0722">G</text>
	</g>
	<rect x="727.254" y="43.921" clip-path="url(#SVGID_2_)" fill="#64F73F" width="40.659" height="43.038"/>
	<g clip-path="url(#SVGID_2_)">
		<text transform="matrix(1 0 0 1 736.2227 74.0488)" font-family="'Helvetica'" font-size="34.0722">A</text>
	</g>
	<rect x="767.913" y="43.921" clip-path="url(#SVGID_2_)" fill="#EB413C" width="44.441" height="43.038"/>
	<g clip-path="url(#SVGID_2_)">
		<text transform="matrix(1 0 0 1 776.8809 74.0488)" font-family="'Helvetica'" font-size="34.0722">G</text>
	</g>
	<rect x="812.354" y="43.921" clip-path="url(#SVGID_2_)" fill="#EB413C" width="44.442" height="43.038"/>
	<g clip-path="url(#SVGID_2_)">
		<text transform="matrix(1 0 0 1 821.3203 74.0488)" font-family="'Helvetica'" font-size="34.0722">G</text>
	</g>
	<rect x="856.793" y="43.921" clip-path="url(#SVGID_2_)" fill="#64F73F" width="40.658" height="43.038"/>
	<g clip-path="url(#SVGID_2_)">
		<text transform="matrix(1 0 0 1 865.7617 74.0488)" font-family="'Helvetica'" font-size="34.0722">A</text>
	</g>
	<rect x="897.451" y="43.921" clip-path="url(#SVGID_2_)" fill="#64F73F" width="40.659" height="43.038"/>
	<g clip-path="url(#SVGID_2_)">
		<text transform="matrix(1 0 0 1 906.4199 74.0488)" font-family="'Helvetica'" font-size="34.0722">A</text>
	</g>
	<rect x="938.11" y="43.921" clip-path="url(#SVGID_2_)" fill="#EB413C" width="44.441" height="43.038"/>
	<g clip-path="url(#SVGID_2_)">
		<text transform="matrix(1 0 0 1 947.0781 74.0488)" font-family="'Helvetica'" font-size="34.0722">G</text>
	</g>
	<rect x="982.552" y="43.921" clip-path="url(#SVGID_2_)" fill="#3C88EE" width="38.751" height="43.038"/>
	<g clip-path="url(#SVGID_2_)">
		<text transform="matrix(1 0 0 1 991.5195 74.0488)" font-family="'Helvetica'" font-size="34.0722">T</text>
	</g>
	<rect x="1021.302" y="43.921" clip-path="url(#SVGID_2_)" fill="#64F73F" width="40.659" height="43.038"/>
	<g clip-path="url(#SVGID_2_)">
		<text transform="matrix(1 0 0 1 1030.2715 74.0488)" font-family="'Helvetica'" font-size="34.0722">A</text>
	</g>
	<rect x="1061.961" y="43.921" clip-path="url(#SVGID_2_)" fill="#FFB340" width="42.534" height="43.038"/>
	<g clip-path="url(#SVGID_2_)">
		<text transform="matrix(1 0 0 1 1070.9297 74.0488)" font-family="'Helvetica'" font-size="34.0722">C</text>
	</g>
	<rect x="1104.495" y="43.921" clip-path="url(#SVGID_2_)" fill="#64F73F" width="40.658" height="43.038"/>
	<g clip-path="url(#SVGID_2_)">
		<text transform="matrix(1 0 0 1 1113.4629 74.0488)" font-family="'Helvetica'" font-size="34.0722">A</text>
	</g>
	<g clip-path="url(#SVGID_2_)">
		<text transform="matrix(1 0 0 1 72.3926 160.127)"><tspan x="0" y="0" font-family="'Helvetica'" font-size="34.0722">rea</tspan><tspan x="49.245" y="0" font-family="'Helvetica'" font-size="34.0722" letter-spacing="9">d</tspan><tspan x="77.667" y="0" font-family="'Helvetica'" font-size="34.0722">1</tspan></text>
	</g>
	<rect x="522.123" y="130.001" clip-path="url(#SVGID_2_)" fill="#64F73F" width="40.658" height="43.038"/>
	<g clip-path="url(#SVGID_2_)">
		<text transform="matrix(1 0 0 1 531.0879 160.127)"><tspan x="0" y="0" font-family="'Helvetica'" font-size="34.0722" letter-spacing="20">A</tspan><tspan x="43.476" y="0" font-family="'Helvetica'" font-size="34.0722" letter-spacing="21">–</tspan><tspan x="84.095" y="0" font-family="'Helvetica'" font-size="34.0722" letter-spacing="19">–</tspan><tspan x="122.807" y="0" font-family="'Helvetica'" font-size="34.0722">–</tspan></text>
	</g>
	<rect x="682.816" y="130.001" clip-path="url(#SVGID_2_)" fill="#EB413C" width="44.441" height="43.038"/>
	<g clip-path="url(#SVGID_2_)">
		<text transform="matrix(1 0 0 1 691.7793 160.127)" font-family="'Helvetica'" font-size="34.0722">G</text>
	</g>
	<rect x="727.254" y="130.001" clip-path="url(#SVGID_2_)" fill="#64F73F" width="40.659" height="43.038"/>
	<g clip-path="url(#SVGID_2_)">
		<text transform="matrix(1 0 0 1 736.2227 160.127)" font-family="'Helvetica'" font-size="34.0722">A</text>
	</g>
	<rect x="767.913" y="130.001" clip-path="url(#SVGID_2_)" fill="#EB413C" width="44.441" height="43.038"/>
	<g clip-path="url(#SVGID_2_)">
		<text transform="matrix(1 0 0 1 776.8809 160.127)" font-family="'Helvetica'" font-size="34.0722">G</text>
	</g>
	<rect x="812.354" y="130.001" clip-path="url(#SVGID_2_)" fill="#EB413C" width="44.442" height="43.038"/>
	<g clip-path="url(#SVGID_2_)">
		<text transform="matrix(1 0 0 1 821.3203 160.127)" font-family="'Helvetica'" font-size="34.0722">G</text>
	</g>
	<rect x="856.793" y="130.001" clip-path="url(#SVGID_2_)" fill="#64F73F" width="40.658" height="43.038"/>
	<g clip-path="url(#SVGID_2_)">
		<text transform="matrix(1 0 0 1 865.7617 160.127)" font-family="'Helvetica'" font-size="34.0722">A</text>
	</g>
	<g clip-path="url(#SVGID_2_)">
		<text transform="matrix(1 0 0 1 72.3926 203.1641)"><tspan x="0" y="0" font-family="'Helvetica'" font-size="34.0722">rea</tspan><tspan x="49.245" y="0" font-family="'Helvetica'" font-size="34.0722" letter-spacing="9">d</tspan><tspan x="77.667" y="0" font-family="'Helvetica'" font-size="34.0722">2</tspan></text>
	</g>
	<rect x="351.922" y="173.039" clip-path="url(#SVGID_2_)" fill="#EB413C" width="44.442" height="43.038"/>
	<g clip-path="url(#SVGID_2_)">
		<text transform="matrix(1 0 0 1 360.8906 203.1641)" font-family="'Helvetica'" font-size="34.0722">G</text>
	</g>
	<rect x="396.364" y="173.039" clip-path="url(#SVGID_2_)" fill="#64F73F" width="40.658" height="43.038"/>
	<g clip-path="url(#SVGID_2_)">
		<text transform="matrix(1 0 0 1 405.332 203.1641)" font-family="'Helvetica'" font-size="34.0722">A</text>
	</g>
	<rect x="437.022" y="173.039" clip-path="url(#SVGID_2_)" fill="#64F73F" width="40.658" height="43.038"/>
	<g clip-path="url(#SVGID_2_)">
		<text transform="matrix(1 0 0 1 445.9902 203.1641)" font-family="'Helvetica'" font-size="34.0722">A</text>
	</g>
	<rect x="477.681" y="173.039" clip-path="url(#SVGID_2_)" fill="#EB413C" width="44.442" height="43.038"/>
	<g clip-path="url(#SVGID_2_)">
		<text transform="matrix(1 0 0 1 486.6484 203.1641)" font-family="'Helvetica'" font-size="34.0722">G</text>
	</g>
	<rect x="522.123" y="173.039" clip-path="url(#SVGID_2_)" fill="#64F73F" width="40.658" height="43.038"/>
	<g clip-path="url(#SVGID_2_)">
		<text transform="matrix(1 0 0 1 531.0879 203.1641)"><tspan x="0" y="0" font-family="'Helvetica'" font-size="34.0722" letter-spacing="20">A</tspan><tspan x="43.476" y="0" font-family="'Helvetica'" font-size="34.0722" letter-spacing="21">–</tspan><tspan x="84.095" y="0" font-family="'Helvetica'" font-size="34.0722" letter-spacing="19">–</tspan><tspan x="122.807" y="0" font-family="'Helvetica'" font-size="34.0722">–</tspan></text>
	</g>
	<rect x="682.816" y="173.039" clip-path="url(#SVGID_2_)" fill="#EB413C" width="44.441" height="43.038"/>
	<g clip-path="url(#SVGID_2_)">
		<text transform="matrix(1 0 0 1 691.7793 203.1641)" font-family="'Helvetica'" font-size="34.0722">G</text>
	</g>
</g>
</svg>
