<?xml version="1.0" encoding="utf-8"?>
<!-- Generator: Adobe Illustrator 16.0.4, SVG Export Plug-In . SVG Version: 6.00 Build 0)  -->
<!DOCTYPE svg PUBLIC "-//W3C//DTD SVG 1.1//EN" "http://www.w3.org/Graphics/SVG/1.1/DTD/svg11.dtd">
<svg version="1.1" id="Layer_1" xmlns="http://www.w3.org/2000/svg" xmlns:xlink="http://www.w3.org/1999/xlink" x="0px" y="0px"
	 width="136.667px" height="69.584px" viewBox="0 0 136.667 69.584" enable-background="new 0 0 136.667 69.584"
	 xml:space="preserve">
<g>
	<g>
		<line fill="none" stroke="#000000" stroke-miterlimit="10" x1="0.675" y1="9.229" x2="26.321" y2="9.229"/>
		<polyline fill="none" stroke="#000000" stroke-miterlimit="10" points="22.345,4.874 26.7,9.229 25.942,9.229 		"/>
		<rect x="0.559" y="4.559" fill="none" width="27.455" height="5.28"/>
	</g>
	<g>
		<line fill="none" stroke="#000000" stroke-miterlimit="10" x1="105.172" y1="9.229" x2="79.514" y2="9.229"/>
		<polyline fill="none" stroke="#000000" stroke-miterlimit="10" points="83.491,4.874 79.134,9.229 79.893,9.229 		"/>
		<rect x="77.821" y="4.559" fill="none" width="27.469" height="5.28"/>
	</g>
	<g>
		<g>
			<line fill="none" stroke="#000000" stroke-miterlimit="10" x1="29.127" y1="9.229" x2="29.627" y2="9.229"/>
			
				<line fill="none" stroke="#000000" stroke-miterlimit="10" stroke-dasharray="0.9912,0.9912" x1="30.618" y1="9.229" x2="75.719" y2="9.229"/>
			<line fill="none" stroke="#000000" stroke-miterlimit="10" x1="76.214" y1="9.229" x2="76.714" y2="9.229"/>
		</g>
	</g>
</g>
<g>
	<g>
		<line fill="none" stroke="#000000" stroke-miterlimit="10" x1="0.675" y1="27.561" x2="26.321" y2="27.561"/>
		<polyline fill="none" stroke="#000000" stroke-miterlimit="10" points="22.345,23.206 26.7,27.561 25.942,27.561 		"/>
		<rect x="0.559" y="22.891" fill="none" width="27.455" height="5.28"/>
	</g>
	<g>
		<line fill="none" stroke="#000000" stroke-miterlimit="10" x1="77.938" y1="27.561" x2="103.596" y2="27.561"/>
		<polyline fill="none" stroke="#000000" stroke-miterlimit="10" points="99.62,23.206 103.976,27.561 103.217,27.561 		"/>
		<rect x="77.821" y="22.891" fill="none" width="27.469" height="5.28"/>
	</g>
	<g>
		<g>
			<line fill="none" stroke="#000000" stroke-miterlimit="10" x1="29.127" y1="27.561" x2="29.627" y2="27.561"/>
			
				<line fill="none" stroke="#000000" stroke-miterlimit="10" stroke-dasharray="0.9912,0.9912" x1="30.618" y1="27.561" x2="75.719" y2="27.561"/>
			<line fill="none" stroke="#000000" stroke-miterlimit="10" x1="76.214" y1="27.561" x2="76.714" y2="27.561"/>
		</g>
	</g>
</g>
<g>
	<g>
		<line fill="none" stroke="#000000" stroke-miterlimit="10" x1="27.897" y1="45.894" x2="2.251" y2="45.894"/>
		<polyline fill="none" stroke="#000000" stroke-miterlimit="10" points="6.228,41.539 1.872,45.894 2.63,45.894 		"/>
		<rect x="0.559" y="41.224" fill="none" width="27.455" height="5.28"/>
	</g>
	<g>
		<line fill="none" stroke="#000000" stroke-miterlimit="10" x1="105.172" y1="45.894" x2="79.514" y2="45.894"/>
		<polyline fill="none" stroke="#000000" stroke-miterlimit="10" points="83.491,41.539 79.134,45.894 79.893,45.894 		"/>
		<rect x="77.821" y="41.224" fill="none" width="27.469" height="5.28"/>
	</g>
	<g>
		<g>
			<line fill="none" stroke="#000000" stroke-miterlimit="10" x1="29.127" y1="45.894" x2="29.627" y2="45.894"/>
			
				<line fill="none" stroke="#000000" stroke-miterlimit="10" stroke-dasharray="0.9912,0.9912" x1="30.618" y1="45.894" x2="75.719" y2="45.894"/>
			<line fill="none" stroke="#000000" stroke-miterlimit="10" x1="76.214" y1="45.894" x2="76.714" y2="45.894"/>
		</g>
	</g>
</g>
<g>
	<g>
		<line fill="none" stroke="#000000" stroke-miterlimit="10" x1="27.897" y1="64.226" x2="2.251" y2="64.226"/>
		<polyline fill="none" stroke="#000000" stroke-miterlimit="10" points="6.228,59.871 1.872,64.226 2.63,64.226 		"/>
		<rect x="0.559" y="59.556" fill="none" width="27.455" height="5.28"/>
	</g>
	<g>
		<line fill="none" stroke="#000000" stroke-miterlimit="10" x1="77.938" y1="64.226" x2="103.596" y2="64.226"/>
		<polyline fill="none" stroke="#000000" stroke-miterlimit="10" points="99.62,59.871 103.976,64.226 103.217,64.226 		"/>
		<rect x="77.821" y="59.556" fill="none" width="27.469" height="5.28"/>
	</g>
	<g>
		<g>
			<line fill="none" stroke="#000000" stroke-miterlimit="10" x1="29.127" y1="64.226" x2="29.627" y2="64.226"/>
			
				<line fill="none" stroke="#000000" stroke-miterlimit="10" stroke-dasharray="0.9912,0.9912" x1="30.618" y1="64.226" x2="75.719" y2="64.226"/>
			<line fill="none" stroke="#000000" stroke-miterlimit="10" x1="76.214" y1="64.226" x2="76.714" y2="64.226"/>
		</g>
	</g>
</g>
<polyline fill="none" stroke="#01AF45" stroke-width="3" stroke-miterlimit="10" points="118.833,7.424 122.167,11.974 
	134.833,2.424 "/>
<g>
	<line fill="none" stroke="#FF0000" stroke-width="3" stroke-miterlimit="10" x1="121.633" y1="30.731" x2="132.034" y2="20.33"/>
	<line fill="none" stroke="#FF0000" stroke-width="3" stroke-miterlimit="10" x1="132.034" y1="30.731" x2="121.633" y2="20.33"/>
</g>
<g>
	<line fill="none" stroke="#FF0000" stroke-width="3" stroke-miterlimit="10" x1="121.634" y1="49.064" x2="132.035" y2="38.663"/>
	<line fill="none" stroke="#FF0000" stroke-width="3" stroke-miterlimit="10" x1="132.034" y1="49.064" x2="121.633" y2="38.663"/>
</g>
<g>
	<line fill="none" stroke="#FF0000" stroke-width="3" stroke-miterlimit="10" x1="121.633" y1="67.396" x2="132.034" y2="56.995"/>
	<line fill="none" stroke="#FF0000" stroke-width="3" stroke-miterlimit="10" x1="132.034" y1="67.396" x2="121.633" y2="56.995"/>
</g>
<g>
</g>
<g>
</g>
<g>
</g>
<g>
</g>
<g>
</g>
</svg>
