<?xml version="1.0" encoding="utf-8"?>
<!-- Generator: Adobe Illustrator 16.0.4, SVG Export Plug-In . SVG Version: 6.00 Build 0)  -->
<!DOCTYPE svg PUBLIC "-//W3C//DTD SVG 1.1//EN" "http://www.w3.org/Graphics/SVG/1.1/DTD/svg11.dtd">
<svg version="1.1" id="Layer_1" xmlns="http://www.w3.org/2000/svg" xmlns:xlink="http://www.w3.org/1999/xlink" x="0px" y="0px"
	 width="274px" height="248px" viewBox="0 0 274 248" enable-background="new 0 0 274 248" xml:space="preserve">
<g>
	<defs>
		<rect id="SVGID_1_" x="-151" y="-123" width="612" height="792"/>
	</defs>
	<clipPath id="SVGID_2_">
		<use xlink:href="#SVGID_1_"  overflow="visible"/>
	</clipPath>
	<rect x="8.833" y="124.628" clip-path="url(#SVGID_2_)" fill="#CCCCFF" width="24.907" height="24.906"/>
	
		<rect x="8.833" y="124.628" clip-path="url(#SVGID_2_)" fill="none" stroke="#000000" stroke-width="0.3985" stroke-miterlimit="10" width="24.907" height="24.906"/>
	<g clip-path="url(#SVGID_2_)">
		<path d="M22.119,139.01c-0.05,0.18-0.05,0.199-0.05,0.24c0,0.179,0.279,0.179,0.647,0.179c0.189,0,0.279,0,0.279,0.11
			c0,0.199-0.13,0.199-0.189,0.199c-0.408,0-0.837-0.03-1.245-0.03c-0.279,0-0.957,0.03-1.235,0.03c-0.03,0-0.15,0-0.15-0.12
			c0-0.189,0.11-0.189,0.279-0.189c0.787,0,0.808-0.079,0.907-0.468l1.425-5.709h-0.011l-4.025,6.307
			c-0.05,0.07-0.109,0.18-0.219,0.18c-0.119,0-0.13-0.109-0.149-0.229l-0.857-6.178h-0.01l-1.354,5.431
			c-0.03,0.109-0.04,0.159-0.04,0.229c0,0.229,0.109,0.429,0.678,0.438c0.069,0,0.179,0,0.179,0.11c0,0.199-0.129,0.199-0.179,0.199
			c-0.329,0-0.688-0.03-1.026-0.03c-0.329,0-0.678,0.03-0.997,0.03c-0.079,0-0.139-0.03-0.139-0.12c0-0.179,0.129-0.189,0.179-0.189
			c0.808-0.03,0.977-0.349,1.076-0.747l1.266-5.072c0.03-0.119,0.04-0.148,0.04-0.189c0-0.109-0.06-0.139-0.22-0.158
			c-0.119-0.01-0.299-0.021-0.428-0.021c-0.2,0-0.289,0-0.289-0.12c0-0.188,0.109-0.188,0.299-0.188h1.365
			c0.259,0,0.278,0,0.309,0.229l0.777,5.639l3.637-5.68c0.119-0.188,0.129-0.188,0.389-0.188h1.315c0.169,0,0.269,0,0.269,0.109
			c0,0.199-0.09,0.199-0.318,0.199c-0.748,0-0.768,0.1-0.857,0.458L22.119,139.01z"/>
	</g>
	<g clip-path="url(#SVGID_2_)">
		<path d="M26.22,140.66c0,0.23,0,0.32,0.697,0.32h0.266v0.252c-0.154-0.008-1.032-0.028-1.249-0.028
			c-0.258,0-1.115,0.021-1.241,0.028v-0.252h0.266c0.697,0,0.697-0.09,0.697-0.32v-3.557c-0.384,0.195-0.844,0.195-1.012,0.195
			v-0.251c0.286,0,0.921-0.007,1.367-0.446c0.195,0,0.209,0.008,0.209,0.195V140.66z"/>
	</g>
	<rect x="68.154" y="124.628" clip-path="url(#SVGID_2_)" fill="#CCCCFF" width="24.907" height="24.906"/>
	
		<rect x="68.154" y="124.628" clip-path="url(#SVGID_2_)" fill="none" stroke="#000000" stroke-width="0.3985" stroke-miterlimit="10" width="24.907" height="24.906"/>
	<g clip-path="url(#SVGID_2_)">
		<path d="M81.44,139.01c-0.05,0.18-0.05,0.199-0.05,0.24c0,0.179,0.279,0.179,0.647,0.179c0.189,0,0.279,0,0.279,0.11
			c0,0.199-0.13,0.199-0.189,0.199c-0.408,0-0.837-0.03-1.245-0.03c-0.279,0-0.957,0.03-1.235,0.03c-0.03,0-0.15,0-0.15-0.12
			c0-0.189,0.11-0.189,0.279-0.189c0.787,0,0.808-0.079,0.907-0.468l1.425-5.709h-0.011l-4.025,6.307
			c-0.05,0.07-0.109,0.18-0.219,0.18c-0.119,0-0.13-0.109-0.149-0.229l-0.857-6.178h-0.01l-1.354,5.431
			c-0.03,0.109-0.04,0.159-0.04,0.229c0,0.229,0.109,0.429,0.678,0.438c0.069,0,0.179,0,0.179,0.11c0,0.199-0.129,0.199-0.179,0.199
			c-0.329,0-0.688-0.03-1.026-0.03c-0.329,0-0.678,0.03-0.997,0.03c-0.079,0-0.139-0.03-0.139-0.12c0-0.179,0.129-0.189,0.179-0.189
			c0.808-0.03,0.977-0.349,1.076-0.747l1.266-5.072c0.03-0.119,0.04-0.148,0.04-0.189c0-0.109-0.06-0.139-0.22-0.158
			c-0.119-0.01-0.299-0.021-0.428-0.021c-0.2,0-0.289,0-0.289-0.12c0-0.188,0.109-0.188,0.299-0.188h1.365
			c0.259,0,0.278,0,0.309,0.229l0.777,5.639l3.637-5.68c0.119-0.188,0.129-0.188,0.389-0.188h1.315c0.169,0,0.269,0,0.269,0.109
			c0,0.199-0.09,0.199-0.318,0.199c-0.748,0-0.768,0.1-0.857,0.458L81.44,139.01z"/>
	</g>
	<g clip-path="url(#SVGID_2_)">
		<path d="M86.517,141.232h-2.873c0-0.195,0-0.209,0.069-0.272l1.681-1.659c0.224-0.252,0.655-0.732,0.655-1.34
			c0-0.564-0.362-1.108-1.06-1.108c-0.328,0-0.802,0.153-1.019,0.649c0.363,0,0.412,0.243,0.412,0.369
			c0,0.251-0.202,0.369-0.37,0.369c-0.069,0-0.369-0.035-0.369-0.391c0-0.641,0.586-1.248,1.45-1.248
			c0.893,0,1.632,0.516,1.632,1.359c0,0.663-0.481,1.096-0.997,1.507c-0.419,0.327-0.662,0.522-1.395,1.171h1.283
			c0.098,0,0.634,0,0.69-0.041c0.09-0.07,0.16-0.481,0.181-0.635h0.237L86.517,141.232z"/>
	</g>
	<rect x="127.476" y="124.628" clip-path="url(#SVGID_2_)" fill="#CCCCFF" width="24.907" height="24.906"/>
	
		<rect x="127.476" y="124.628" clip-path="url(#SVGID_2_)" fill="none" stroke="#000000" stroke-width="0.3985" stroke-miterlimit="10" width="24.907" height="24.906"/>
	<g clip-path="url(#SVGID_2_)">
		<path d="M140.762,139.01c-0.05,0.18-0.05,0.199-0.05,0.24c0,0.179,0.279,0.179,0.647,0.179c0.189,0,0.279,0,0.279,0.11
			c0,0.199-0.13,0.199-0.189,0.199c-0.408,0-0.837-0.03-1.245-0.03c-0.279,0-0.957,0.03-1.235,0.03c-0.03,0-0.15,0-0.15-0.12
			c0-0.189,0.11-0.189,0.279-0.189c0.787,0,0.808-0.079,0.907-0.468l1.425-5.709h-0.011l-4.025,6.307
			c-0.05,0.07-0.109,0.18-0.219,0.18c-0.119,0-0.13-0.109-0.149-0.229l-0.857-6.178h-0.01l-1.354,5.431
			c-0.03,0.109-0.04,0.159-0.04,0.229c0,0.229,0.109,0.429,0.678,0.438c0.069,0,0.179,0,0.179,0.11c0,0.199-0.129,0.199-0.179,0.199
			c-0.329,0-0.688-0.03-1.026-0.03c-0.329,0-0.678,0.03-0.997,0.03c-0.079,0-0.139-0.03-0.139-0.12c0-0.179,0.129-0.189,0.179-0.189
			c0.808-0.03,0.977-0.349,1.076-0.747l1.266-5.072c0.03-0.119,0.04-0.148,0.04-0.189c0-0.109-0.06-0.139-0.22-0.158
			c-0.119-0.01-0.299-0.021-0.428-0.021c-0.2,0-0.289,0-0.289-0.12c0-0.188,0.109-0.188,0.299-0.188h1.365
			c0.259,0,0.278,0,0.309,0.229l0.777,5.639l3.637-5.68c0.119-0.188,0.129-0.188,0.389-0.188h1.315c0.169,0,0.269,0,0.269,0.109
			c0,0.199-0.09,0.199-0.318,0.199c-0.748,0-0.768,0.1-0.857,0.458L140.762,139.01z"/>
	</g>
	<g clip-path="url(#SVGID_2_)">
		<path d="M144.053,138.902c-0.119,0-0.182,0-0.182-0.098c0-0.076,0.056-0.09,0.07-0.09c0.034-0.008,0.049-0.008,0.223-0.021
			c0.349-0.021,0.544-0.035,0.774-0.299c0.181-0.217,0.278-0.537,0.278-0.83c0-0.607-0.439-0.761-0.753-0.761
			c-0.258,0-0.739,0.077-0.983,0.384c0.217,0.014,0.355,0.16,0.355,0.362c0,0.195-0.139,0.356-0.355,0.356
			c-0.209,0-0.362-0.133-0.362-0.37c0-0.558,0.593-0.935,1.367-0.935c0.773,0,1.408,0.412,1.408,0.963
			c0,0.425-0.265,0.947-0.997,1.213c0.767,0.16,1.213,0.704,1.213,1.248c0,0.697-0.669,1.346-1.639,1.346
			c-0.844,0-1.568-0.426-1.568-1.08c0-0.286,0.195-0.404,0.39-0.404c0.217,0,0.384,0.16,0.384,0.383
			c0,0.146-0.076,0.377-0.404,0.391c0.293,0.412,0.906,0.488,1.186,0.488c0.404,0,0.906-0.258,0.906-1.123
			c0-0.746-0.391-1.123-0.935-1.123H144.053z"/>
	</g>
	<rect x="186.797" y="124.628" clip-path="url(#SVGID_2_)" fill="#CCCCFF" width="24.907" height="24.906"/>
	
		<rect x="186.797" y="124.628" clip-path="url(#SVGID_2_)" fill="none" stroke="#000000" stroke-width="0.3985" stroke-miterlimit="10" width="24.907" height="24.906"/>
	<g clip-path="url(#SVGID_2_)">
		<path d="M200.082,139.01c-0.05,0.18-0.05,0.199-0.05,0.24c0,0.179,0.279,0.179,0.647,0.179c0.189,0,0.279,0,0.279,0.11
			c0,0.199-0.13,0.199-0.189,0.199c-0.408,0-0.837-0.03-1.245-0.03c-0.279,0-0.957,0.03-1.235,0.03c-0.03,0-0.15,0-0.15-0.12
			c0-0.189,0.11-0.189,0.279-0.189c0.787,0,0.808-0.079,0.907-0.468l1.425-5.709h-0.011l-4.025,6.307
			c-0.05,0.07-0.109,0.18-0.219,0.18c-0.119,0-0.13-0.109-0.149-0.229l-0.857-6.178h-0.01l-1.354,5.431
			c-0.03,0.109-0.04,0.159-0.04,0.229c0,0.229,0.109,0.429,0.678,0.438c0.069,0,0.179,0,0.179,0.11c0,0.199-0.129,0.199-0.179,0.199
			c-0.329,0-0.688-0.03-1.026-0.03c-0.329,0-0.678,0.03-0.997,0.03c-0.079,0-0.139-0.03-0.139-0.12c0-0.179,0.129-0.189,0.179-0.189
			c0.808-0.03,0.977-0.349,1.076-0.747l1.266-5.072c0.03-0.119,0.04-0.148,0.04-0.189c0-0.109-0.06-0.139-0.22-0.158
			c-0.119-0.01-0.299-0.021-0.428-0.021c-0.2,0-0.289,0-0.289-0.12c0-0.188,0.109-0.188,0.299-0.188h1.365
			c0.259,0,0.278,0,0.309,0.229l0.777,5.639l3.637-5.68c0.119-0.188,0.129-0.188,0.389-0.188h1.315c0.169,0,0.269,0,0.269,0.109
			c0,0.199-0.09,0.199-0.318,0.199c-0.748,0-0.768,0.1-0.857,0.458L200.082,139.01z"/>
	</g>
	<g clip-path="url(#SVGID_2_)">
		<path d="M204.761,140.088v0.572c0,0.237,0,0.32,0.564,0.32h0.188v0.252c-0.349-0.015-0.795-0.028-1.053-0.028
			c-0.251,0-0.697,0.014-1.046,0.028v-0.252h0.188c0.565,0,0.565-0.083,0.565-0.32v-0.572h-2.051v-0.25l2.309-3.209
			c0.069-0.098,0.098-0.098,0.182-0.098c0.153,0,0.153,0.049,0.153,0.195v3.111h0.773v0.25H204.761z M202.376,139.838h1.841v-2.553
			L202.376,139.838z"/>
	</g>
	<rect x="246.118" y="124.628" clip-path="url(#SVGID_2_)" fill="#CCCCFF" width="24.907" height="24.906"/>
	
		<rect x="246.118" y="124.628" clip-path="url(#SVGID_2_)" fill="none" stroke="#000000" stroke-width="0.3985" stroke-miterlimit="10" width="24.907" height="24.906"/>
	<g clip-path="url(#SVGID_2_)">
		<path d="M259.403,139.01c-0.05,0.18-0.05,0.199-0.05,0.24c0,0.179,0.279,0.179,0.647,0.179c0.189,0,0.279,0,0.279,0.11
			c0,0.199-0.13,0.199-0.189,0.199c-0.408,0-0.837-0.03-1.245-0.03c-0.279,0-0.957,0.03-1.235,0.03c-0.03,0-0.15,0-0.15-0.12
			c0-0.189,0.11-0.189,0.279-0.189c0.787,0,0.808-0.079,0.907-0.468l1.425-5.709h-0.011l-4.025,6.307
			c-0.05,0.07-0.109,0.18-0.219,0.18c-0.119,0-0.13-0.109-0.149-0.229l-0.857-6.178h-0.01l-1.354,5.431
			c-0.03,0.109-0.04,0.159-0.04,0.229c0,0.229,0.109,0.429,0.678,0.438c0.069,0,0.179,0,0.179,0.11c0,0.199-0.129,0.199-0.179,0.199
			c-0.329,0-0.688-0.03-1.026-0.03c-0.329,0-0.678,0.03-0.997,0.03c-0.079,0-0.139-0.03-0.139-0.12c0-0.179,0.129-0.189,0.179-0.189
			c0.808-0.03,0.977-0.349,1.076-0.747l1.266-5.072c0.03-0.119,0.04-0.148,0.04-0.189c0-0.109-0.06-0.139-0.22-0.158
			c-0.119-0.01-0.299-0.021-0.428-0.021c-0.2,0-0.289,0-0.289-0.12c0-0.188,0.109-0.188,0.299-0.188h1.365
			c0.259,0,0.278,0,0.309,0.229l0.777,5.639l3.637-5.68c0.119-0.188,0.129-0.188,0.389-0.188h1.315c0.169,0,0.269,0,0.269,0.109
			c0,0.199-0.09,0.199-0.318,0.199c-0.748,0-0.768,0.1-0.857,0.458L259.403,139.01z"/>
	</g>
	<g clip-path="url(#SVGID_2_)">
		<path d="M262.248,138.658c0.307-0.264,0.669-0.342,0.976-0.342c0.865,0,1.465,0.727,1.465,1.514c0,0.879-0.781,1.541-1.674,1.541
			c-0.837,0-1.408-0.627-1.408-1.255c0-0.376,0.335-0.376,0.349-0.376c0.091,0,0.349,0.055,0.349,0.355
			c0,0.188-0.133,0.362-0.397,0.342c0.174,0.46,0.642,0.711,1.095,0.711c0.342,0,0.642-0.168,0.815-0.418
			c0.21-0.308,0.21-0.719,0.21-0.928c0-0.404-0.042-0.67-0.168-0.9c-0.034-0.055-0.223-0.391-0.642-0.391
			c-0.244,0-0.669,0.057-0.969,0.439c-0.07,0.084-0.077,0.098-0.14,0.098c-0.111,0-0.111-0.083-0.111-0.201v-2.058
			c0-0.112,0-0.188,0.091-0.188c0.007,0,0.021,0,0.09,0.035c0.454,0.174,0.823,0.188,1.019,0.188c0.516,0,0.886-0.139,1.053-0.201
			c0.028-0.021,0.042-0.021,0.056-0.021c0.035,0,0.084,0.021,0.084,0.098c0,0.104-0.544,0.732-1.465,0.732
			c-0.111,0-0.32,0-0.676-0.091V138.658z"/>
	</g>
	
		<rect x="11.482" y="66.461" transform="matrix(0.7071 0.7071 -0.7071 0.7071 60.1622 7.286)" clip-path="url(#SVGID_2_)" fill="#F5CCD6" width="19.608" height="19.608"/>
	
		<rect x="11.482" y="66.461" transform="matrix(0.7071 0.7071 -0.7071 0.7071 60.1622 7.286)" clip-path="url(#SVGID_2_)" fill="none" stroke="#000000" stroke-width="0.3985" stroke-miterlimit="10" width="19.608" height="19.608"/>
	<g clip-path="url(#SVGID_2_)">
		<path d="M19.253,78.195c-0.021,0.07-0.04,0.149-0.04,0.229c0,0.109,0.04,0.149,0.249,0.169c0.199,0.02,0.249,0.02,0.429,0.02
			c0.219,0,0.299,0,0.299,0.12c0,0.189-0.12,0.189-0.199,0.189c-0.299,0-1.036-0.03-1.335-0.03c-0.289,0-1.017,0.03-1.306,0.03
			c-0.03,0-0.149,0-0.149-0.109c0-0.2,0.09-0.2,0.318-0.2c0.787,0,0.817-0.1,0.907-0.468l1.345-5.371
			c0.021-0.089,0.021-0.109,0.021-0.159c0-0.189-0.27-0.189-0.688-0.189c-0.189,0-0.279,0-0.279-0.109
			c0-0.199,0.13-0.199,0.199-0.199c0.299,0,1.026,0.03,1.325,0.03c0.289,0,1.026-0.03,1.315-0.03c0.04,0,0.149,0,0.149,0.119
			c0,0.189-0.08,0.189-0.319,0.189c-0.787,0-0.816,0.1-0.906,0.458L19.253,78.195z"/>
	</g>
	<g clip-path="url(#SVGID_2_)">
		<path d="M23.577,79.845c0,0.23,0,0.321,0.697,0.321h0.266v0.251c-0.154-0.007-1.032-0.028-1.249-0.028
			c-0.258,0-1.115,0.021-1.241,0.028v-0.251h0.266c0.697,0,0.697-0.091,0.697-0.321v-3.556c-0.384,0.195-0.844,0.195-1.012,0.195
			v-0.251c0.286,0,0.921-0.007,1.367-0.446c0.195,0,0.209,0.007,0.209,0.195V79.845z"/>
	</g>
	
		<rect x="70.803" y="66.461" transform="matrix(0.7071 0.7071 -0.7071 0.7071 77.537 -34.6605)" clip-path="url(#SVGID_2_)" fill="#F5CCD6" width="19.608" height="19.608"/>
	
		<rect x="70.803" y="66.461" transform="matrix(0.7071 0.7071 -0.7071 0.7071 77.537 -34.6605)" clip-path="url(#SVGID_2_)" fill="none" stroke="#000000" stroke-width="0.3985" stroke-miterlimit="10" width="19.608" height="19.608"/>
	<g clip-path="url(#SVGID_2_)">
		<path d="M78.573,78.195c-0.021,0.07-0.04,0.149-0.04,0.229c0,0.109,0.04,0.149,0.249,0.169c0.199,0.02,0.249,0.02,0.429,0.02
			c0.219,0,0.299,0,0.299,0.12c0,0.189-0.12,0.189-0.199,0.189c-0.299,0-1.036-0.03-1.335-0.03c-0.289,0-1.017,0.03-1.306,0.03
			c-0.03,0-0.149,0-0.149-0.109c0-0.2,0.09-0.2,0.318-0.2c0.787,0,0.817-0.1,0.907-0.468l1.345-5.371
			c0.021-0.089,0.021-0.109,0.021-0.159c0-0.189-0.27-0.189-0.688-0.189c-0.189,0-0.279,0-0.279-0.109
			c0-0.199,0.13-0.199,0.199-0.199c0.299,0,1.026,0.03,1.325,0.03c0.289,0,1.026-0.03,1.315-0.03c0.04,0,0.149,0,0.149,0.119
			c0,0.189-0.08,0.189-0.319,0.189c-0.787,0-0.816,0.1-0.906,0.458L78.573,78.195z"/>
	</g>
	<g clip-path="url(#SVGID_2_)">
		<path d="M83.874,80.417h-2.873c0-0.195,0-0.209,0.069-0.272l1.681-1.66c0.224-0.251,0.655-0.732,0.655-1.339
			c0-0.565-0.362-1.109-1.06-1.109c-0.328,0-0.802,0.154-1.019,0.649c0.363,0,0.412,0.244,0.412,0.369c0,0.251-0.202,0.37-0.37,0.37
			c-0.069,0-0.369-0.035-0.369-0.39c0-0.642,0.586-1.249,1.45-1.249c0.893,0,1.632,0.516,1.632,1.36
			c0,0.663-0.481,1.095-0.997,1.506c-0.419,0.328-0.662,0.523-1.395,1.171h1.283c0.098,0,0.634,0,0.69-0.042
			c0.09-0.069,0.16-0.481,0.181-0.634h0.237L83.874,80.417z"/>
	</g>
	
		<rect x="130.125" y="66.461" transform="matrix(0.7071 0.7071 -0.7071 0.7071 94.9118 -76.607)" clip-path="url(#SVGID_2_)" fill="#F5CCD6" width="19.608" height="19.608"/>
	
		<rect x="130.125" y="66.461" transform="matrix(0.7071 0.7071 -0.7071 0.7071 94.9118 -76.607)" clip-path="url(#SVGID_2_)" fill="none" stroke="#000000" stroke-width="0.3985" stroke-miterlimit="10" width="19.608" height="19.608"/>
	<g clip-path="url(#SVGID_2_)">
		<path d="M137.895,78.195c-0.021,0.07-0.04,0.149-0.04,0.229c0,0.109,0.04,0.149,0.249,0.169c0.199,0.02,0.249,0.02,0.429,0.02
			c0.219,0,0.299,0,0.299,0.12c0,0.189-0.12,0.189-0.199,0.189c-0.299,0-1.036-0.03-1.335-0.03c-0.289,0-1.017,0.03-1.306,0.03
			c-0.03,0-0.149,0-0.149-0.109c0-0.2,0.09-0.2,0.318-0.2c0.787,0,0.817-0.1,0.907-0.468l1.345-5.371
			c0.021-0.089,0.021-0.109,0.021-0.159c0-0.189-0.27-0.189-0.688-0.189c-0.189,0-0.279,0-0.279-0.109
			c0-0.199,0.13-0.199,0.199-0.199c0.299,0,1.026,0.03,1.325,0.03c0.289,0,1.026-0.03,1.315-0.03c0.04,0,0.149,0,0.149,0.119
			c0,0.189-0.08,0.189-0.319,0.189c-0.787,0-0.816,0.1-0.906,0.458L137.895,78.195z"/>
	</g>
	<g clip-path="url(#SVGID_2_)">
		<path d="M141.409,78.088c-0.119,0-0.182,0-0.182-0.098c0-0.077,0.056-0.091,0.07-0.091c0.034-0.007,0.049-0.007,0.223-0.021
			c0.349-0.021,0.544-0.035,0.774-0.3c0.181-0.216,0.278-0.537,0.278-0.83c0-0.606-0.439-0.76-0.753-0.76
			c-0.258,0-0.739,0.077-0.983,0.384c0.217,0.014,0.355,0.16,0.355,0.363c0,0.195-0.139,0.355-0.355,0.355
			c-0.209,0-0.362-0.133-0.362-0.37c0-0.558,0.593-0.935,1.367-0.935c0.773,0,1.408,0.412,1.408,0.962
			c0,0.425-0.265,0.948-0.997,1.213c0.767,0.16,1.213,0.704,1.213,1.248c0,0.697-0.669,1.346-1.639,1.346
			c-0.844,0-1.568-0.426-1.568-1.081c0-0.286,0.195-0.404,0.39-0.404c0.217,0,0.384,0.16,0.384,0.383
			c0,0.146-0.076,0.376-0.404,0.391c0.293,0.412,0.906,0.488,1.186,0.488c0.404,0,0.906-0.258,0.906-1.123
			c0-0.746-0.391-1.123-0.935-1.123H141.409z"/>
	</g>
	
		<rect x="189.446" y="66.461" transform="matrix(0.7071 0.7071 -0.7071 0.7071 112.2867 -118.5538)" clip-path="url(#SVGID_2_)" fill="#F5CCD6" width="19.608" height="19.609"/>
	
		<rect x="189.446" y="66.461" transform="matrix(0.7071 0.7071 -0.7071 0.7071 112.2867 -118.5538)" clip-path="url(#SVGID_2_)" fill="none" stroke="#000000" stroke-width="0.3985" stroke-miterlimit="10" width="19.608" height="19.609"/>
	<g clip-path="url(#SVGID_2_)">
		<path d="M197.216,78.195c-0.021,0.07-0.04,0.149-0.04,0.229c0,0.109,0.04,0.149,0.249,0.169c0.199,0.02,0.249,0.02,0.429,0.02
			c0.219,0,0.299,0,0.299,0.12c0,0.189-0.12,0.189-0.199,0.189c-0.299,0-1.036-0.03-1.335-0.03c-0.289,0-1.017,0.03-1.306,0.03
			c-0.03,0-0.149,0-0.149-0.109c0-0.2,0.09-0.2,0.318-0.2c0.787,0,0.817-0.1,0.907-0.468l1.345-5.371
			c0.021-0.089,0.021-0.109,0.021-0.159c0-0.189-0.27-0.189-0.688-0.189c-0.189,0-0.279,0-0.279-0.109
			c0-0.199,0.13-0.199,0.199-0.199c0.299,0,1.026,0.03,1.325,0.03c0.289,0,1.026-0.03,1.315-0.03c0.04,0,0.149,0,0.149,0.119
			c0,0.189-0.08,0.189-0.319,0.189c-0.787,0-0.816,0.1-0.906,0.458L197.216,78.195z"/>
	</g>
	<g clip-path="url(#SVGID_2_)">
		<path d="M202.118,79.273v0.572c0,0.237,0,0.321,0.564,0.321h0.188v0.251c-0.349-0.014-0.795-0.028-1.053-0.028
			c-0.251,0-0.697,0.014-1.046,0.028v-0.251h0.188c0.565,0,0.565-0.084,0.565-0.321v-0.572h-2.051v-0.251l2.309-3.208
			c0.069-0.098,0.098-0.098,0.182-0.098c0.153,0,0.153,0.049,0.153,0.195v3.11h0.773v0.251H202.118z M199.733,79.022h1.841V76.47
			L199.733,79.022z"/>
	</g>
	<circle clip-path="url(#SVGID_2_)" fill="#CCFFCC" cx="80.607" cy="14.951" r="12.952"/>
	
		<circle clip-path="url(#SVGID_2_)" fill="none" stroke="#000000" stroke-width="0.3985" stroke-miterlimit="10" cx="80.607" cy="14.951" r="12.952"/>
	<g clip-path="url(#SVGID_2_)">
		<path d="M77.168,11.481c0.029-0.12,0.039-0.149,0.039-0.189c0-0.109-0.06-0.139-0.219-0.159c-0.12-0.01-0.299-0.02-0.429-0.02
			c-0.199,0-0.289,0-0.289-0.12c0-0.189,0.109-0.189,0.299-0.189h3.349c1.494,0,2.341,1.116,2.341,2.521
			c0,2.182-1.963,4.285-4.035,4.285h-3.298c-0.189,0-0.279,0-0.279-0.12c0-0.189,0.109-0.189,0.279-0.189
			c0.787,0,0.807-0.08,0.906-0.468L77.168,11.481z M76.619,16.961c-0.05,0.179-0.05,0.199-0.05,0.229c0,0.08,0.03,0.09,0.13,0.1
			c0.06,0.01,0.08,0.01,0.219,0.01h1.126c1.226,0,2.013-0.757,2.302-1.126c0.848-1.096,1.047-2.73,1.047-3.218
			c0-1.315-0.827-1.843-1.804-1.843h-1.066c-0.429,0-0.448,0.03-0.538,0.379L76.619,16.961z"/>
	</g>
	<g clip-path="url(#SVGID_2_)">
		<path d="M85.809,19.104h-2.873c0-0.195,0-0.209,0.069-0.272l1.681-1.66c0.224-0.251,0.655-0.732,0.655-1.339
			c0-0.565-0.362-1.109-1.06-1.109c-0.328,0-0.802,0.154-1.019,0.649c0.363,0,0.412,0.244,0.412,0.369c0,0.251-0.202,0.37-0.37,0.37
			c-0.069,0-0.369-0.035-0.369-0.39c0-0.642,0.586-1.249,1.45-1.249c0.893,0,1.632,0.516,1.632,1.36
			c0,0.663-0.481,1.095-0.997,1.506c-0.419,0.328-0.662,0.523-1.395,1.171h1.283c0.098,0,0.634,0,0.69-0.042
			c0.09-0.069,0.16-0.481,0.181-0.634h0.237L85.809,19.104z"/>
	</g>
	<circle clip-path="url(#SVGID_2_)" fill="#CCFFCC" cx="139.929" cy="14.951" r="12.952"/>
	
		<circle clip-path="url(#SVGID_2_)" fill="none" stroke="#000000" stroke-width="0.3985" stroke-miterlimit="10" cx="139.929" cy="14.951" r="12.952"/>
	<g clip-path="url(#SVGID_2_)">
		<path d="M136.488,11.481c0.029-0.12,0.039-0.149,0.039-0.189c0-0.109-0.06-0.139-0.219-0.159c-0.12-0.01-0.299-0.02-0.429-0.02
			c-0.199,0-0.289,0-0.289-0.12c0-0.189,0.109-0.189,0.299-0.189h3.349c1.494,0,2.341,1.116,2.341,2.521
			c0,2.182-1.963,4.285-4.035,4.285h-3.298c-0.189,0-0.279,0-0.279-0.12c0-0.189,0.109-0.189,0.279-0.189
			c0.787,0,0.807-0.08,0.906-0.468L136.488,11.481z M135.939,16.961c-0.05,0.179-0.05,0.199-0.05,0.229c0,0.08,0.03,0.09,0.13,0.1
			c0.06,0.01,0.08,0.01,0.219,0.01h1.126c1.226,0,2.013-0.757,2.302-1.126c0.848-1.096,1.047-2.73,1.047-3.218
			c0-1.315-0.827-1.843-1.804-1.843h-1.066c-0.429,0-0.448,0.03-0.538,0.379L135.939,16.961z"/>
	</g>
	<g clip-path="url(#SVGID_2_)">
		<path d="M143.345,16.775c-0.119,0-0.182,0-0.182-0.098c0-0.077,0.056-0.091,0.07-0.091c0.034-0.007,0.049-0.007,0.223-0.021
			c0.349-0.021,0.544-0.035,0.774-0.3c0.181-0.216,0.278-0.537,0.278-0.83c0-0.606-0.439-0.76-0.753-0.76
			c-0.258,0-0.739,0.077-0.983,0.384c0.217,0.014,0.355,0.16,0.355,0.362c0,0.195-0.139,0.356-0.355,0.356
			c-0.209,0-0.362-0.132-0.362-0.37c0-0.558,0.593-0.935,1.367-0.935c0.773,0,1.408,0.412,1.408,0.962
			c0,0.425-0.265,0.948-0.997,1.213c0.767,0.16,1.213,0.704,1.213,1.248c0,0.697-0.669,1.346-1.639,1.346
			c-0.844,0-1.568-0.426-1.568-1.081c0-0.286,0.195-0.404,0.39-0.404c0.217,0,0.384,0.16,0.384,0.383
			c0,0.146-0.076,0.376-0.404,0.391c0.293,0.412,0.906,0.488,1.186,0.488c0.404,0,0.906-0.258,0.906-1.123
			c0-0.746-0.391-1.123-0.935-1.123H143.345z"/>
	</g>
	<circle clip-path="url(#SVGID_2_)" fill="#CCFFCC" cx="199.25" cy="14.951" r="12.952"/>
	
		<circle clip-path="url(#SVGID_2_)" fill="none" stroke="#000000" stroke-width="0.3985" stroke-miterlimit="10" cx="199.25" cy="14.951" r="12.952"/>
	<g clip-path="url(#SVGID_2_)">
		<path d="M195.809,11.481c0.029-0.12,0.039-0.149,0.039-0.189c0-0.109-0.06-0.139-0.219-0.159c-0.12-0.01-0.299-0.02-0.429-0.02
			c-0.199,0-0.289,0-0.289-0.12c0-0.189,0.109-0.189,0.299-0.189h3.349c1.494,0,2.341,1.116,2.341,2.521
			c0,2.182-1.963,4.285-4.035,4.285h-3.298c-0.189,0-0.279,0-0.279-0.12c0-0.189,0.109-0.189,0.279-0.189
			c0.787,0,0.807-0.08,0.906-0.468L195.809,11.481z M195.26,16.961c-0.05,0.179-0.05,0.199-0.05,0.229c0,0.08,0.03,0.09,0.13,0.1
			c0.06,0.01,0.08,0.01,0.219,0.01h1.126c1.226,0,2.013-0.757,2.302-1.126c0.848-1.096,1.047-2.73,1.047-3.218
			c0-1.315-0.827-1.843-1.804-1.843h-1.066c-0.429,0-0.448,0.03-0.538,0.379L195.26,16.961z"/>
	</g>
	<g clip-path="url(#SVGID_2_)">
		<path d="M204.052,17.96v0.572c0,0.237,0,0.321,0.564,0.321h0.188v0.251c-0.349-0.014-0.795-0.028-1.053-0.028
			c-0.251,0-0.697,0.014-1.046,0.028v-0.251h0.188c0.565,0,0.565-0.083,0.565-0.321V17.96h-2.051v-0.251l2.309-3.208
			c0.069-0.098,0.098-0.098,0.182-0.098c0.153,0,0.153,0.049,0.153,0.195v3.11h0.773v0.251H204.052z M201.667,17.709h1.841v-2.552
			L201.667,17.709z"/>
	</g>
	<circle clip-path="url(#SVGID_2_)" fill="#CCCCCC" cx="80.607" cy="233.752" r="12.952"/>
	
		<circle clip-path="url(#SVGID_2_)" fill="none" stroke="#000000" stroke-width="0.3985" stroke-miterlimit="10" cx="80.607" cy="233.752" r="12.952"/>
	<g clip-path="url(#SVGID_2_)">
		<path d="M79.773,231.703c1.205-1.494,2.48-1.584,2.819-1.584c0.737,0,1.216,0.429,1.216,1.006c0,0.938-1.166,1.654-1.963,1.993
			c1.017,0.189,1.574,0.817,1.574,1.654c0,1.604-2.062,2.601-3.468,2.601c-1.075,0-1.464-0.658-1.464-0.688
			c0-0.18,0.508-0.488,0.727-0.488c0.08,0,0.09,0.02,0.13,0.07c0.13,0.139,0.498,0.558,1.266,0.558c0.906,0,1.963-0.399,1.963-1.634
			c0-0.947-0.817-1.545-1.823-1.545c-0.21,0-0.438,0.04-0.479,0.04c-0.03,0-0.1-0.011-0.1-0.069c0-0.25,0.688-0.488,0.807-0.529
			c1.037-0.348,1.983-0.667,1.983-1.544c0-0.528-0.488-0.876-1.026-0.876c-0.628,0-1.046,0.299-1.505,0.945
			c-0.707,1.027-1.086,2.332-1.305,3.189c-0.299,1.155-0.678,1.883-0.808,2.111c-0.159,0.279-0.578,0.459-0.737,0.459
			c-0.02,0-0.1,0-0.1-0.07c0-0.01,0-0.029,0.05-0.119c0.488-0.967,0.678-1.574,1.046-3.268c0.18-0.857,0.419-2.133,0.538-3.109
			c-0.188,0.09-0.448,0.229-0.567,0.229c-0.04,0-0.109,0-0.109-0.06c0-0.18,0.378-0.369,0.837-0.598
			c0.199-0.1,0.498-0.25,0.607-0.25c0.09,0,0.109,0.03,0.109,0.1c0,0.03,0,0.051-0.02,0.16L79.773,231.703z"/>
	</g>
	
		<rect x="11.482" y="210.77" transform="matrix(0.7071 0.7071 -0.7071 0.7071 162.2041 49.5531)" clip-path="url(#SVGID_2_)" fill="#D2A6D2" width="19.608" height="19.608"/>
	
		<rect x="11.482" y="210.77" transform="matrix(0.7071 0.7071 -0.7071 0.7071 162.2041 49.5531)" clip-path="url(#SVGID_2_)" fill="none" stroke="#000000" stroke-width="0.3985" stroke-miterlimit="10" width="19.608" height="19.608"/>
	<g clip-path="url(#SVGID_2_)">
		<path d="M22.591,218.487c-0.04,0.169-0.05,0.199-0.149,0.199c-0.119,0-0.119-0.09-0.119-0.1c0-0.06,0.039-0.239,0.039-0.558
			c0-1.117-0.607-1.545-1.435-1.545c-0.946,0-1.743,0.847-1.743,1.654c0,0.527,0.338,0.816,0.607,0.906
			c0.09,0.02,0.448,0.119,0.668,0.18c0.887,0.229,1.036,0.27,1.265,0.498c0.149,0.14,0.488,0.479,0.488,1.166
			c0,1.235-1.176,2.561-2.53,2.561c-0.578,0-1.256-0.14-1.685-0.717l-0.488,0.567c-0.119,0.14-0.129,0.149-0.179,0.149
			c-0.06,0-0.109-0.04-0.109-0.1c0-0.029,0.558-2.302,0.598-2.342c0.029-0.029,0.05-0.039,0.1-0.039s0.119,0.01,0.119,0.109
			c0,0.02-0.01,0.029-0.02,0.069c-0.01,0.06-0.06,0.299-0.06,0.538c0,1.235,1.105,1.455,1.743,1.455
			c0.977,0,1.794-0.938,1.794-1.834c0-0.816-0.548-0.967-0.917-1.056l-1.066-0.279c-0.508-0.149-1.036-0.608-1.036-1.415
			c0-1.205,1.196-2.352,2.461-2.352c0.648,0,1.166,0.25,1.425,0.718l0.479-0.567c0.12-0.141,0.13-0.15,0.18-0.15
			c0.09,0,0.109,0.07,0.109,0.1L22.591,218.487z"/>
	</g>
	<g clip-path="url(#SVGID_2_)">
		<path d="M23.808,223.973c-0.021,0.076-0.042,0.209-0.042,0.285c0,0.168,0.049,0.342,0.237,0.342c0.3,0,0.433-0.446,0.523-0.795
			c0.027-0.125,0.041-0.168,0.139-0.168c0.021,0,0.112,0,0.112,0.092c0,0.027-0.098,0.438-0.244,0.697
			c-0.182,0.313-0.391,0.369-0.559,0.369c-0.334,0-0.731-0.217-0.731-0.662c0-0.07,0.007-0.146,0.027-0.217l0.865-3.445
			c0.014-0.062,0.027-0.104,0.027-0.152c0-0.057,0-0.105-0.334-0.105c-0.077,0-0.175,0-0.175-0.098c0-0.146,0.098-0.152,0.146-0.16
			c0.174-0.014,0.753-0.069,0.893-0.069c0.084,0,0.111,0.062,0.111,0.098c0,0.007-0.021,0.098-0.027,0.111L23.808,223.973z"/>
	</g>
	<circle clip-path="url(#SVGID_2_)" fill="#CCCCCC" cx="199.25" cy="233.752" r="12.952"/>
	
		<circle clip-path="url(#SVGID_2_)" fill="none" stroke="#000000" stroke-width="0.3985" stroke-miterlimit="10" cx="199.25" cy="233.752" r="12.952"/>
	<g clip-path="url(#SVGID_2_)">
		<path d="M197.617,232.421c0-1.216,1.694-2.292,3.05-2.292c0.448,0,1.136,0.09,1.136,0.678c0,0.568-0.618,0.957-0.917,0.957
			c-0.03,0-0.1,0-0.1-0.07c0-0.029,0.03-0.08,0.05-0.109c0.04-0.061,0.119-0.199,0.119-0.359c0-0.518-0.757-0.547-0.946-0.547
			c-1.395,0-1.544,1.086-1.544,1.314c0,0.398,0.278,1.086,1.684,1.146c0.05,0,0.1,0.01,0.1,0.069c0,0.11-0.349,0.458-0.817,0.479
			c-1.574,0.06-2.132,1.534-2.132,2.022c0,0.748,0.787,1.116,1.494,1.116c0.887,0,1.306-0.578,1.515-0.867
			c0.229-0.309,0.608-0.438,0.728-0.438c0.05,0,0.1,0.01,0.1,0.07c0,0.209-1.335,1.783-2.999,1.783
			c-0.946,0-1.684-0.479-1.684-1.235c0-0.239,0.109-1.524,2.103-2.601C198.066,233.367,197.617,233.009,197.617,232.421z"/>
	</g>
	
		<rect x="248.768" y="210.77" transform="matrix(0.7071 0.7071 -0.7071 0.7071 231.7036 -118.2335)" clip-path="url(#SVGID_2_)" fill="#D2A6D2" width="19.608" height="19.608"/>
	
		<rect x="248.768" y="210.77" transform="matrix(0.7071 0.7071 -0.7071 0.7071 231.7036 -118.2335)" clip-path="url(#SVGID_2_)" fill="none" stroke="#000000" stroke-width="0.3985" stroke-miterlimit="10" width="19.608" height="19.608"/>
	<g clip-path="url(#SVGID_2_)">
		<path d="M259.196,218.487c-0.04,0.169-0.05,0.199-0.149,0.199c-0.119,0-0.119-0.09-0.119-0.1c0-0.06,0.039-0.239,0.039-0.558
			c0-1.117-0.607-1.545-1.435-1.545c-0.946,0-1.743,0.847-1.743,1.654c0,0.527,0.338,0.816,0.607,0.906
			c0.09,0.02,0.448,0.119,0.668,0.18c0.887,0.229,1.036,0.27,1.265,0.498c0.149,0.14,0.488,0.479,0.488,1.166
			c0,1.235-1.176,2.561-2.53,2.561c-0.578,0-1.256-0.14-1.685-0.717l-0.488,0.567c-0.119,0.14-0.129,0.149-0.179,0.149
			c-0.06,0-0.109-0.04-0.109-0.1c0-0.029,0.558-2.302,0.598-2.342c0.029-0.029,0.05-0.039,0.1-0.039s0.119,0.01,0.119,0.109
			c0,0.02-0.01,0.029-0.02,0.069c-0.01,0.06-0.06,0.299-0.06,0.538c0,1.235,1.105,1.455,1.743,1.455
			c0.977,0,1.794-0.938,1.794-1.834c0-0.816-0.548-0.967-0.917-1.056l-1.066-0.279c-0.508-0.149-1.036-0.608-1.036-1.415
			c0-1.205,1.196-2.352,2.461-2.352c0.648,0,1.166,0.25,1.425,0.718l0.479-0.567c0.12-0.141,0.13-0.15,0.18-0.15
			c0.09,0,0.109,0.07,0.109,0.1L259.196,218.487z"/>
	</g>
	<g clip-path="url(#SVGID_2_)">
		<path d="M260.867,224.07c-0.042,0.174-0.118,0.48-0.132,0.522c-0.057,0.14-0.195,0.202-0.3,0.202c-0.112,0-0.237-0.07-0.237-0.223
			c0-0.021,0.042-0.195,0.069-0.287l0.224-0.893c0.034-0.152,0.104-0.438,0.153-0.627s0.111-0.446,0.111-0.578
			c0-0.189-0.049-0.342-0.23-0.342c-0.271,0-0.404,0.327-0.509,0.752c-0.049,0.189-0.056,0.21-0.153,0.21
			c-0.021,0-0.118,0-0.118-0.091c0-0.035,0.098-0.439,0.258-0.711c0.111-0.195,0.286-0.355,0.544-0.355
			c0.167,0,0.593,0.069,0.718,0.494c0.307-0.348,0.621-0.494,0.983-0.494c0.355,0,0.739,0.146,0.739,0.509
			c0,0.292-0.23,0.425-0.391,0.425s-0.278-0.104-0.278-0.258c0-0.125,0.083-0.32,0.307-0.383c-0.14-0.092-0.314-0.098-0.384-0.098
			c-0.3,0-0.488,0.139-0.564,0.195c-0.224,0.166-0.426,0.516-0.439,0.571c-0.015,0.034-0.175,0.662-0.182,0.704L260.867,224.07z"/>
	</g>
	
		<line clip-path="url(#SVGID_2_)" fill="none" stroke="#000000" stroke-width="0.3985" stroke-miterlimit="10" x1="72.674" y1="220.823" x2="30.611" y2="152.285"/>
	<path clip-path="url(#SVGID_2_)" d="M30.194,151.604c0.352,0.955,0.534,2.015,0.564,3.4c0.139-1.49,0.819-1.908,2.211-1.356
		C31.748,152.992,30.886,152.351,30.194,151.604z"/>
	
		<path clip-path="url(#SVGID_2_)" fill="none" stroke="#000000" stroke-width="0.3992" stroke-linejoin="round" stroke-miterlimit="10" d="
		M30.194,151.604c0.352,0.955,0.534,2.015,0.564,3.4c0.139-1.49,0.819-1.908,2.211-1.357
		C31.748,152.992,30.886,152.351,30.194,151.604z"/>
	
		<line clip-path="url(#SVGID_2_)" fill="none" stroke="#000000" stroke-width="0.3985" stroke-miterlimit="10" x1="80.607" y1="218.608" x2="80.607" y2="152.723"/>
	<path clip-path="url(#SVGID_2_)" d="M80.607,151.926c-0.199,0.996-0.598,1.992-1.295,3.188c0.896-1.195,1.693-1.195,2.59,0
		C81.205,153.918,80.807,152.922,80.607,151.926z"/>
	
		<path clip-path="url(#SVGID_2_)" fill="none" stroke="#000000" stroke-width="0.3985" stroke-linejoin="round" stroke-miterlimit="10" d="
		M80.607,151.926c-0.199,0.996-0.598,1.992-1.295,3.188c0.896-1.195,1.693-1.195,2.59,0
		C81.205,153.918,80.807,152.922,80.607,151.926z"/>
	
		<line clip-path="url(#SVGID_2_)" fill="none" stroke="#000000" stroke-width="0.3985" stroke-miterlimit="10" x1="88.542" y1="220.823" x2="130.604" y2="152.285"/>
	<path clip-path="url(#SVGID_2_)" d="M131.021,151.604c-0.692,0.746-1.554,1.388-2.776,2.044c1.392-0.552,2.072-0.134,2.211,1.356
		C130.488,153.619,130.669,152.56,131.021,151.604z"/>
	
		<path clip-path="url(#SVGID_2_)" fill="none" stroke="#000000" stroke-width="0.3992" stroke-linejoin="round" stroke-miterlimit="10" d="
		M131.021,151.604c-0.692,0.746-1.554,1.388-2.776,2.043c1.392-0.551,2.072-0.133,2.211,1.357
		C130.488,153.619,130.669,152.56,131.021,151.604z"/>
	
		<line clip-path="url(#SVGID_2_)" fill="none" stroke="#000000" stroke-width="0.3985" stroke-miterlimit="10" x1="92.375" y1="224.162" x2="184.275" y2="149.276"/>
	<path clip-path="url(#SVGID_2_)" d="M184.895,148.772c-0.9,0.476-1.927,0.797-3.297,1.012c1.496-0.06,2.001,0.56,1.64,2.013
		C183.725,150.498,184.247,149.558,184.895,148.772z"/>
	
		<path clip-path="url(#SVGID_2_)" fill="none" stroke="#000000" stroke-width="0.3995" stroke-linejoin="round" stroke-miterlimit="10" d="
		M184.895,148.772c-0.9,0.476-1.927,0.797-3.297,1.012c1.496-0.06,2.001,0.56,1.64,2.013
		C183.725,150.498,184.247,149.558,184.895,148.772z"/>
	
		<line clip-path="url(#SVGID_2_)" fill="none" stroke="#000000" stroke-width="0.3985" stroke-miterlimit="10" x1="93.932" y1="226.513" x2="243.289" y2="145.366"/>
	<path clip-path="url(#SVGID_2_)" d="M243.991,144.985c-0.973,0.301-2.039,0.427-3.425,0.385c1.48,0.217,1.861,0.918,1.238,2.278
		C242.523,146.464,243.209,145.637,243.991,144.985z"/>
	
		<path clip-path="url(#SVGID_2_)" fill="none" stroke="#000000" stroke-width="0.3991" stroke-linejoin="round" stroke-miterlimit="10" d="
		M243.991,144.985c-0.973,0.301-2.039,0.427-3.425,0.385c1.48,0.217,1.861,0.918,1.238,2.278
		C242.523,146.464,243.209,145.637,243.991,144.985z"/>
	
		<line clip-path="url(#SVGID_2_)" fill="none" stroke="#000000" stroke-width="0.3985" stroke-miterlimit="10" x1="65.818" y1="230.467" x2="35.783" y2="223.794"/>
	<path clip-path="url(#SVGID_2_)" d="M35.004,223.621c0.93,0.411,1.816,1.017,2.833,1.957c-0.973-1.135-0.8-1.914,0.562-2.53
		C37.08,223.47,36.021,223.643,35.004,223.621z"/>
	
		<path clip-path="url(#SVGID_2_)" fill="none" stroke="#000000" stroke-width="0.3987" stroke-linejoin="round" stroke-miterlimit="10" d="
		M35.004,223.621c0.93,0.411,1.816,1.017,2.833,1.957c-0.973-1.136-0.8-1.914,0.562-2.53
		C37.08,223.47,36.021,223.643,35.004,223.621z"/>
	
		<line clip-path="url(#SVGID_2_)" fill="none" stroke="#000000" stroke-width="0.3985" stroke-miterlimit="10" x1="21.286" y1="204.434" x2="21.286" y2="152.723"/>
	<path clip-path="url(#SVGID_2_)" d="M21.286,151.926c-0.199,0.996-0.598,1.992-1.295,3.188c0.897-1.195,1.694-1.195,2.59,0
		C21.884,153.918,21.485,152.922,21.286,151.926z"/>
	
		<path clip-path="url(#SVGID_2_)" fill="none" stroke="#000000" stroke-width="0.3985" stroke-linejoin="round" stroke-miterlimit="10" d="
		M21.286,151.926c-0.199,0.996-0.598,1.992-1.295,3.188c0.897-1.195,1.694-1.195,2.59,0
		C21.884,153.918,21.485,152.922,21.286,151.926z"/>
	
		<line clip-path="url(#SVGID_2_)" fill="none" stroke="#000000" stroke-width="0.3985" stroke-miterlimit="10" x1="28.317" y1="210.678" x2="69.887" y2="152.171"/>
	<path clip-path="url(#SVGID_2_)" d="M70.348,151.521c-0.739,0.697-1.642,1.278-2.903,1.85c1.424-0.455,2.074,0.006,2.112,1.501
		C69.682,153.492,69.934,152.448,70.348,151.521z"/>
	
		<path clip-path="url(#SVGID_2_)" fill="none" stroke="#000000" stroke-width="0.3986" stroke-linejoin="round" stroke-miterlimit="10" d="
		M70.348,151.521c-0.739,0.697-1.642,1.278-2.903,1.85c1.424-0.455,2.074,0.006,2.112,1.5
		C69.682,153.492,69.934,152.448,70.348,151.521z"/>
	
		<line clip-path="url(#SVGID_2_)" fill="none" stroke="#000000" stroke-width="0.3985" stroke-miterlimit="10" x1="31.223" y1="213.582" x2="124.828" y2="147.703"/>
	<path clip-path="url(#SVGID_2_)" d="M125.481,147.244c-0.931,0.411-1.977,0.658-3.359,0.776c1.497,0.046,1.956,0.698,1.494,2.122
		C124.193,148.882,124.779,147.981,125.481,147.244z"/>
	
		<path clip-path="url(#SVGID_2_)" fill="none" stroke="#000000" stroke-width="0.3992" stroke-linejoin="round" stroke-miterlimit="10" d="
		M125.481,147.244c-0.931,0.411-1.977,0.658-3.359,0.776c1.497,0.046,1.956,0.698,1.494,2.122
		C124.193,148.882,124.779,147.981,125.481,147.244z"/>
	
		<line clip-path="url(#SVGID_2_)" fill="none" stroke="#000000" stroke-width="0.3985" stroke-miterlimit="10" x1="32.727" y1="215.206" x2="183.883" y2="144.277"/>
	<path clip-path="url(#SVGID_2_)" d="M184.606,143.938c-0.99,0.243-2.064,0.306-3.448,0.183c1.469,0.305,1.809,1.028,1.104,2.353
		C183.051,145.33,183.786,144.543,184.606,143.938z"/>
	
		<path clip-path="url(#SVGID_2_)" fill="none" stroke="#000000" stroke-width="0.3999" stroke-linejoin="round" stroke-miterlimit="10" d="
		M184.606,143.938c-0.99,0.243-2.064,0.306-3.448,0.183c1.469,0.305,1.809,1.028,1.104,2.353
		C183.051,145.33,183.786,144.543,184.606,143.938z"/>
	
		<line clip-path="url(#SVGID_2_)" fill="none" stroke="#000000" stroke-width="0.3985" stroke-miterlimit="10" x1="33.633" y1="216.23" x2="243.099" y2="142.523"/>
	<path clip-path="url(#SVGID_2_)" d="M243.851,142.258c-1.007,0.144-2.079,0.098-3.439-0.163c1.427,0.449,1.691,1.201,0.86,2.444
		C242.168,143.484,242.977,142.777,243.851,142.258z"/>
	
		<path clip-path="url(#SVGID_2_)" fill="none" stroke="#000000" stroke-width="0.3987" stroke-linejoin="round" stroke-miterlimit="10" d="
		M243.851,142.258c-1.007,0.144-2.079,0.098-3.439-0.163c1.427,0.449,1.691,1.201,0.86,2.444
		C242.168,143.484,242.977,142.777,243.851,142.258z"/>
	
		<line clip-path="url(#SVGID_2_)" fill="none" stroke="#000000" stroke-width="0.3985" stroke-miterlimit="10" x1="35.931" y1="137.081" x2="64.966" y2="137.081"/>
	<path clip-path="url(#SVGID_2_)" d="M65.763,137.081c-0.997-0.199-1.993-0.598-3.188-1.295c1.195,0.896,1.195,1.693,0,2.59
		C63.771,137.679,64.767,137.28,65.763,137.081z"/>
	
		<path clip-path="url(#SVGID_2_)" fill="none" stroke="#000000" stroke-width="0.3985" stroke-linejoin="round" stroke-miterlimit="10" d="
		M65.763,137.081c-0.997-0.199-1.993-0.598-3.188-1.295c1.195,0.896,1.195,1.693,0,2.59
		C63.771,137.679,64.767,137.28,65.763,137.081z"/>
	
		<line clip-path="url(#SVGID_2_)" fill="none" stroke="#000000" stroke-width="0.3985" stroke-miterlimit="10" x1="95.253" y1="137.081" x2="124.288" y2="137.081"/>
	<path clip-path="url(#SVGID_2_)" d="M125.084,137.081c-0.996-0.199-1.993-0.598-3.188-1.295c1.195,0.896,1.195,1.693,0,2.59
		C123.092,137.679,124.088,137.28,125.084,137.081z"/>
	
		<path clip-path="url(#SVGID_2_)" fill="none" stroke="#000000" stroke-width="0.3985" stroke-linejoin="round" stroke-miterlimit="10" d="
		M125.084,137.081c-0.996-0.199-1.993-0.598-3.188-1.295c1.195,0.896,1.195,1.693,0,2.59
		C123.092,137.679,124.088,137.28,125.084,137.081z"/>
	
		<line clip-path="url(#SVGID_2_)" fill="none" stroke="#000000" stroke-width="0.3985" stroke-miterlimit="10" x1="154.574" y1="137.081" x2="183.609" y2="137.081"/>
	<path clip-path="url(#SVGID_2_)" d="M184.406,137.081c-0.996-0.199-1.993-0.598-3.188-1.295c1.195,0.896,1.195,1.693,0,2.59
		C182.413,137.679,183.41,137.28,184.406,137.081z"/>
	
		<path clip-path="url(#SVGID_2_)" fill="none" stroke="#000000" stroke-width="0.3985" stroke-linejoin="round" stroke-miterlimit="10" d="
		M184.406,137.081c-0.996-0.199-1.993-0.598-3.188-1.295c1.195,0.896,1.195,1.693,0,2.59
		C182.413,137.679,183.41,137.28,184.406,137.081z"/>
	
		<line clip-path="url(#SVGID_2_)" fill="none" stroke="#000000" stroke-width="0.3985" stroke-miterlimit="10" x1="213.896" y1="137.081" x2="242.931" y2="137.081"/>
	<path clip-path="url(#SVGID_2_)" d="M243.728,137.081c-0.996-0.199-1.992-0.598-3.188-1.295c1.196,0.896,1.196,1.693,0,2.59
		C241.735,137.679,242.731,137.28,243.728,137.081z"/>
	
		<path clip-path="url(#SVGID_2_)" fill="none" stroke="#000000" stroke-width="0.3985" stroke-linejoin="round" stroke-miterlimit="10" d="
		M243.728,137.081c-0.996-0.199-1.992-0.598-3.188-1.295c1.196,0.896,1.196,1.693,0,2.59
		C241.735,137.679,242.731,137.28,243.728,137.081z"/>
	<path clip-path="url(#SVGID_2_)" fill="none" stroke="#000000" stroke-width="0.3985" stroke-miterlimit="10" d="M12.248,83.686
		c-14.336,2.528-14.336-17.369-0.982-15.014"/>
	<path clip-path="url(#SVGID_2_)" d="M12.051,68.81c-0.948-0.37-1.86-0.936-2.918-1.831c1.023,1.092,0.884,1.877-0.45,2.553
		C9.983,69.053,11.035,68.833,12.051,68.81z"/>
	
		<path clip-path="url(#SVGID_2_)" fill="none" stroke="#000000" stroke-width="0.3989" stroke-linejoin="round" stroke-miterlimit="10" d="
		M12.051,68.81c-0.948-0.37-1.86-0.936-2.918-1.831c1.023,1.091,0.884,1.877-0.45,2.553C9.983,69.053,11.035,68.833,12.051,68.81z"
		/>
	<path clip-path="url(#SVGID_2_)" fill="none" stroke="#000000" stroke-width="0.3985" stroke-miterlimit="10" d="M71.569,83.686
		c-14.336,2.528-14.336-17.369-0.982-15.014"/>
	<path clip-path="url(#SVGID_2_)" d="M71.373,68.81c-0.947-0.37-1.86-0.936-2.917-1.831c1.022,1.092,0.884,1.877-0.45,2.553
		C69.305,69.053,70.356,68.833,71.373,68.81z"/>
	
		<path clip-path="url(#SVGID_2_)" fill="none" stroke="#000000" stroke-width="0.3989" stroke-linejoin="round" stroke-miterlimit="10" d="
		M71.373,68.81c-0.947-0.37-1.86-0.936-2.917-1.831c1.022,1.091,0.884,1.877-0.45,2.553C69.305,69.053,70.356,68.833,71.373,68.81z"
		/>
	<path clip-path="url(#SVGID_2_)" fill="none" stroke="#000000" stroke-width="0.3985" stroke-miterlimit="10" d="M130.891,83.686
		c-14.336,2.528-14.336-17.369-0.982-15.014"/>
	<path clip-path="url(#SVGID_2_)" d="M130.694,68.81c-0.948-0.37-1.86-0.936-2.918-1.831c1.023,1.092,0.884,1.877-0.45,2.553
		C128.626,69.053,129.677,68.833,130.694,68.81z"/>
	
		<path clip-path="url(#SVGID_2_)" fill="none" stroke="#000000" stroke-width="0.3989" stroke-linejoin="round" stroke-miterlimit="10" d="
		M130.694,68.81c-0.948-0.37-1.86-0.936-2.918-1.831c1.023,1.091,0.884,1.877-0.45,2.553
		C128.626,69.053,129.677,68.833,130.694,68.81z"/>
	<path clip-path="url(#SVGID_2_)" fill="none" stroke="#000000" stroke-width="0.3985" stroke-miterlimit="10" d="M190.212,83.686
		c-14.336,2.528-14.336-17.369-0.981-15.014"/>
	<path clip-path="url(#SVGID_2_)" d="M190.016,68.81c-0.947-0.37-1.86-0.936-2.918-1.831c1.023,1.092,0.885,1.877-0.45,2.553
		C187.947,69.053,188.999,68.833,190.016,68.81z"/>
	
		<path clip-path="url(#SVGID_2_)" fill="none" stroke="#000000" stroke-width="0.3989" stroke-linejoin="round" stroke-miterlimit="10" d="
		M190.016,68.81c-0.947-0.37-1.86-0.936-2.918-1.831c1.023,1.091,0.885,1.877-0.45,2.553
		C187.947,69.053,188.999,68.833,190.016,68.81z"/>
	
		<line clip-path="url(#SVGID_2_)" fill="none" stroke="#000000" stroke-width="0.3985" stroke-miterlimit="10" x1="21.286" y1="122.436" x2="21.286" y2="93.402"/>
	<path clip-path="url(#SVGID_2_)" d="M21.286,92.605c-0.199,0.997-0.598,1.993-1.295,3.188c0.897-1.195,1.694-1.195,2.59,0
		C21.884,94.598,21.485,93.602,21.286,92.605z"/>
	
		<path clip-path="url(#SVGID_2_)" fill="none" stroke="#000000" stroke-width="0.3985" stroke-linejoin="round" stroke-miterlimit="10" d="
		M21.286,92.605c-0.199,0.997-0.598,1.993-1.295,3.188c0.897-1.195,1.694-1.195,2.59,0C21.884,94.598,21.485,93.602,21.286,92.605z"
		/>
	
		<line clip-path="url(#SVGID_2_)" fill="none" stroke="#000000" stroke-width="0.3985" stroke-miterlimit="10" x1="80.607" y1="122.436" x2="80.607" y2="93.402"/>
	<path clip-path="url(#SVGID_2_)" d="M80.607,92.605c-0.199,0.997-0.598,1.993-1.295,3.188c0.896-1.195,1.693-1.195,2.59,0
		C81.205,94.598,80.807,93.602,80.607,92.605z"/>
	
		<path clip-path="url(#SVGID_2_)" fill="none" stroke="#000000" stroke-width="0.3985" stroke-linejoin="round" stroke-miterlimit="10" d="
		M80.607,92.605c-0.199,0.997-0.598,1.993-1.295,3.188c0.896-1.195,1.693-1.195,2.59,0C81.205,94.598,80.807,93.602,80.607,92.605z"
		/>
	
		<line clip-path="url(#SVGID_2_)" fill="none" stroke="#000000" stroke-width="0.3985" stroke-miterlimit="10" x1="139.929" y1="122.436" x2="139.929" y2="93.402"/>
	<path clip-path="url(#SVGID_2_)" d="M139.929,92.605c-0.199,0.997-0.598,1.993-1.295,3.188c0.896-1.195,1.693-1.195,2.591,0
		C140.526,94.598,140.128,93.602,139.929,92.605z"/>
	
		<path clip-path="url(#SVGID_2_)" fill="none" stroke="#000000" stroke-width="0.3985" stroke-linejoin="round" stroke-miterlimit="10" d="
		M139.929,92.605c-0.199,0.997-0.598,1.993-1.295,3.188c0.896-1.195,1.693-1.195,2.591,0
		C140.526,94.598,140.128,93.602,139.929,92.605z"/>
	
		<line clip-path="url(#SVGID_2_)" fill="none" stroke="#000000" stroke-width="0.3985" stroke-miterlimit="10" x1="199.251" y1="122.436" x2="199.251" y2="93.402"/>
	<path clip-path="url(#SVGID_2_)" d="M199.251,92.605c-0.2,0.997-0.599,1.993-1.296,3.188c0.896-1.195,1.694-1.195,2.591,0
		C199.849,94.598,199.45,93.602,199.251,92.605z"/>
	
		<path clip-path="url(#SVGID_2_)" fill="none" stroke="#000000" stroke-width="0.3985" stroke-linejoin="round" stroke-miterlimit="10" d="
		M199.251,92.605c-0.2,0.997-0.599,1.993-1.296,3.188c0.896-1.195,1.694-1.195,2.591,0C199.849,94.598,199.45,93.602,199.251,92.605
		z"/>
	
		<line clip-path="url(#SVGID_2_)" fill="none" stroke="#000000" stroke-width="0.3985" stroke-miterlimit="10" x1="28.303" y1="122.632" x2="73.54" y2="29.501"/>
	<path clip-path="url(#SVGID_2_)" d="M73.889,28.783c-0.616,0.811-1.412,1.535-2.564,2.307c1.332-0.686,2.051-0.336,2.335,1.134
		C73.555,30.841,73.632,29.768,73.889,28.783z"/>
	
		<path clip-path="url(#SVGID_2_)" fill="none" stroke="#000000" stroke-width="0.3994" stroke-linejoin="round" stroke-miterlimit="10" d="
		M73.889,28.783c-0.616,0.811-1.412,1.535-2.564,2.307c1.332-0.686,2.051-0.336,2.335,1.134
		C73.555,30.841,73.632,29.768,73.889,28.783z"/>
	
		<line clip-path="url(#SVGID_2_)" fill="none" stroke="#000000" stroke-width="0.3985" stroke-miterlimit="10" x1="87.625" y1="122.632" x2="132.861" y2="29.501"/>
	<path clip-path="url(#SVGID_2_)" d="M133.21,28.783c-0.616,0.811-1.411,1.535-2.563,2.307c1.332-0.686,2.05-0.336,2.335,1.134
		C132.877,30.841,132.954,29.768,133.21,28.783z"/>
	
		<path clip-path="url(#SVGID_2_)" fill="none" stroke="#000000" stroke-width="0.3994" stroke-linejoin="round" stroke-miterlimit="10" d="
		M133.21,28.783c-0.616,0.811-1.411,1.535-2.563,2.307c1.332-0.686,2.05-0.336,2.335,1.134
		C132.877,30.841,132.954,29.768,133.21,28.783z"/>
	
		<line clip-path="url(#SVGID_2_)" fill="none" stroke="#000000" stroke-width="0.3985" stroke-miterlimit="10" x1="146.946" y1="122.632" x2="192.183" y2="29.501"/>
	<path clip-path="url(#SVGID_2_)" d="M192.532,28.783c-0.616,0.811-1.411,1.535-2.563,2.307c1.331-0.686,2.05-0.336,2.335,1.134
		C192.198,30.841,192.275,29.768,192.532,28.783z"/>
	
		<path clip-path="url(#SVGID_2_)" fill="none" stroke="#000000" stroke-width="0.3994" stroke-linejoin="round" stroke-miterlimit="10" d="
		M192.532,28.783c-0.616,0.811-1.411,1.535-2.563,2.307c1.331-0.686,2.05-0.336,2.335,1.134
		C192.198,30.841,192.275,29.768,192.532,28.783z"/>
	
		<line clip-path="url(#SVGID_2_)" fill="none" stroke="#000000" stroke-width="0.3985" stroke-miterlimit="10" x1="87.24" y1="28.603" x2="132.481" y2="121.734"/>
	<path clip-path="url(#SVGID_2_)" d="M132.831,122.452c-0.257-0.985-0.334-2.058-0.229-3.441c-0.285,1.47-1.003,1.819-2.335,1.134
		C131.419,120.918,132.214,121.642,132.831,122.452z"/>
	
		<path clip-path="url(#SVGID_2_)" fill="none" stroke="#000000" stroke-width="0.3994" stroke-linejoin="round" stroke-miterlimit="10" d="
		M132.831,122.452c-0.257-0.985-0.334-2.058-0.229-3.441c-0.285,1.47-1.003,1.819-2.335,1.134
		C131.419,120.918,132.214,121.642,132.831,122.452z"/>
	
		<line clip-path="url(#SVGID_2_)" fill="none" stroke="#000000" stroke-width="0.3985" stroke-miterlimit="10" x1="146.562" y1="28.603" x2="191.803" y2="121.734"/>
	<path clip-path="url(#SVGID_2_)" d="M192.152,122.452c-0.257-0.985-0.334-2.058-0.229-3.441c-0.285,1.47-1.004,1.819-2.336,1.134
		C190.74,120.918,191.536,121.642,192.152,122.452z"/>
	
		<path clip-path="url(#SVGID_2_)" fill="none" stroke="#000000" stroke-width="0.3994" stroke-linejoin="round" stroke-miterlimit="10" d="
		M192.152,122.452c-0.257-0.985-0.334-2.058-0.229-3.441c-0.285,1.47-1.004,1.819-2.336,1.134
		C190.74,120.918,191.536,121.642,192.152,122.452z"/>
	
		<line clip-path="url(#SVGID_2_)" fill="none" stroke="#000000" stroke-width="0.3985" stroke-miterlimit="10" x1="205.883" y1="28.603" x2="251.124" y2="121.734"/>
	<path clip-path="url(#SVGID_2_)" d="M251.474,122.452c-0.257-0.985-0.334-2.058-0.229-3.441c-0.285,1.47-1.004,1.819-2.335,1.134
		C250.062,120.918,250.857,121.642,251.474,122.452z"/>
	
		<path clip-path="url(#SVGID_2_)" fill="none" stroke="#000000" stroke-width="0.3994" stroke-linejoin="round" stroke-miterlimit="10" d="
		M251.474,122.452c-0.257-0.985-0.334-2.058-0.229-3.441c-0.285,1.47-1.004,1.819-2.335,1.134
		C250.062,120.918,250.857,121.642,251.474,122.452z"/>
	
		<line clip-path="url(#SVGID_2_)" fill="none" stroke="#000000" stroke-width="0.3985" stroke-miterlimit="10" x1="95.751" y1="14.951" x2="123.79" y2="14.951"/>
	<path clip-path="url(#SVGID_2_)" d="M124.586,14.951c-0.997-0.199-1.993-0.598-3.188-1.295c1.195,0.897,1.195,1.694,0,2.59
		C122.594,15.549,123.59,15.15,124.586,14.951z"/>
	
		<path clip-path="url(#SVGID_2_)" fill="none" stroke="#000000" stroke-width="0.3985" stroke-linejoin="round" stroke-miterlimit="10" d="
		M124.586,14.951c-0.997-0.199-1.993-0.598-3.188-1.295c1.195,0.897,1.195,1.694,0,2.59C122.594,15.549,123.59,15.15,124.586,14.951
		z"/>
	
		<line clip-path="url(#SVGID_2_)" fill="none" stroke="#000000" stroke-width="0.3985" stroke-miterlimit="10" x1="155.072" y1="14.951" x2="183.111" y2="14.951"/>
	<path clip-path="url(#SVGID_2_)" d="M183.908,14.951c-0.996-0.199-1.993-0.598-3.188-1.295c1.195,0.897,1.195,1.694,0,2.59
		C181.915,15.549,182.912,15.15,183.908,14.951z"/>
	
		<path clip-path="url(#SVGID_2_)" fill="none" stroke="#000000" stroke-width="0.3985" stroke-linejoin="round" stroke-miterlimit="10" d="
		M183.908,14.951c-0.996-0.199-1.993-0.598-3.188-1.295c1.195,0.897,1.195,1.694,0,2.59
		C181.915,15.549,182.912,15.15,183.908,14.951z"/>
	
		<line clip-path="url(#SVGID_2_)" fill="none" stroke="#000000" stroke-width="0.3985" stroke-miterlimit="10" x1="29.668" y1="84.857" x2="66.18" y2="122.283"/>
	<path clip-path="url(#SVGID_2_)" d="M66.738,122.855c-0.555-0.854-0.966-1.849-1.303-3.195c0.193,1.486-0.378,2.044-1.859,1.814
		C64.914,121.843,65.897,122.279,66.738,122.855z"/>
	
		<path clip-path="url(#SVGID_2_)" fill="none" stroke="#000000" stroke-width="0.3996" stroke-linejoin="round" stroke-miterlimit="10" d="
		M66.738,122.855c-0.555-0.854-0.966-1.849-1.303-3.195c0.193,1.486-0.378,2.044-1.859,1.814
		C64.914,121.843,65.897,122.279,66.738,122.855z"/>
	
		<line clip-path="url(#SVGID_2_)" fill="none" stroke="#000000" stroke-width="0.3985" stroke-miterlimit="10" x1="88.99" y1="84.857" x2="125.501" y2="122.283"/>
	<path clip-path="url(#SVGID_2_)" d="M126.06,122.855c-0.555-0.854-0.966-1.849-1.303-3.195c0.194,1.486-0.378,2.044-1.859,1.814
		C124.235,121.843,125.219,122.279,126.06,122.855z"/>
	
		<path clip-path="url(#SVGID_2_)" fill="none" stroke="#000000" stroke-width="0.3996" stroke-linejoin="round" stroke-miterlimit="10" d="
		M126.06,122.855c-0.555-0.854-0.966-1.849-1.303-3.195c0.194,1.486-0.378,2.044-1.859,1.814
		C124.235,121.843,125.219,122.279,126.06,122.855z"/>
	
		<line clip-path="url(#SVGID_2_)" fill="none" stroke="#000000" stroke-width="0.3985" stroke-miterlimit="10" x1="148.312" y1="84.857" x2="184.823" y2="122.283"/>
	<path clip-path="url(#SVGID_2_)" d="M185.381,122.855c-0.555-0.854-0.966-1.849-1.303-3.195c0.193,1.486-0.379,2.044-1.859,1.814
		C183.557,121.843,184.54,122.279,185.381,122.855z"/>
	
		<path clip-path="url(#SVGID_2_)" fill="none" stroke="#000000" stroke-width="0.3996" stroke-linejoin="round" stroke-miterlimit="10" d="
		M185.381,122.855c-0.555-0.854-0.966-1.849-1.303-3.195c0.193,1.486-0.379,2.044-1.859,1.814
		C183.557,121.843,184.54,122.279,185.381,122.855z"/>
	
		<line clip-path="url(#SVGID_2_)" fill="none" stroke="#000000" stroke-width="0.3985" stroke-miterlimit="10" x1="207.633" y1="84.857" x2="244.145" y2="122.283"/>
	<path clip-path="url(#SVGID_2_)" d="M244.702,122.855c-0.555-0.854-0.966-1.849-1.303-3.195c0.193,1.486-0.378,2.044-1.859,1.814
		C242.878,121.843,243.861,122.279,244.702,122.855z"/>
	
		<path clip-path="url(#SVGID_2_)" fill="none" stroke="#000000" stroke-width="0.3996" stroke-linejoin="round" stroke-miterlimit="10" d="
		M244.702,122.855c-0.555-0.854-0.966-1.849-1.303-3.195c0.193,1.486-0.378,2.044-1.859,1.814
		C242.878,121.843,243.861,122.279,244.702,122.855z"/>
	
		<line clip-path="url(#SVGID_2_)" fill="none" stroke="#000000" stroke-width="0.3985" stroke-miterlimit="10" x1="35.692" y1="144.899" x2="185.049" y2="226.037"/>
	<path clip-path="url(#SVGID_2_)" d="M185.751,226.418c-0.782-0.651-1.468-1.479-2.187-2.664c0.623,1.361,0.242,2.062-1.238,2.279
		C183.712,225.991,184.778,226.117,185.751,226.418z"/>
	
		<path clip-path="url(#SVGID_2_)" fill="none" stroke="#000000" stroke-width="0.399" stroke-linejoin="round" stroke-miterlimit="10" d="
		M185.751,226.418c-0.782-0.651-1.468-1.479-2.187-2.664c0.623,1.36,0.242,2.062-1.238,2.279
		C183.712,225.991,184.778,226.117,185.751,226.418z"/>
	
		<line clip-path="url(#SVGID_2_)" fill="none" stroke="#000000" stroke-width="0.3985" stroke-miterlimit="10" x1="94.809" y1="148.648" x2="186.709" y2="223.532"/>
	<path clip-path="url(#SVGID_2_)" d="M187.328,224.037c-0.647-0.786-1.17-1.727-1.657-3.025c0.361,1.454-0.144,2.073-1.64,2.013
		C185.401,223.239,186.428,223.561,187.328,224.037z"/>
	
		<path clip-path="url(#SVGID_2_)" fill="none" stroke="#000000" stroke-width="0.3994" stroke-linejoin="round" stroke-miterlimit="10" d="
		M187.328,224.036c-0.647-0.785-1.17-1.726-1.657-3.024c0.361,1.454-0.144,2.073-1.64,2.013
		C185.401,223.239,186.428,223.561,187.328,224.036z"/>
	
		<line clip-path="url(#SVGID_2_)" fill="none" stroke="#000000" stroke-width="0.3985" stroke-miterlimit="10" x1="148.735" y1="151.435" x2="190.795" y2="219.974"/>
	<path clip-path="url(#SVGID_2_)" d="M191.213,220.653c-0.352-0.954-0.534-2.014-0.564-3.399c-0.14,1.49-0.819,1.907-2.212,1.356
		C189.658,219.266,190.521,219.907,191.213,220.653z"/>
	
		<path clip-path="url(#SVGID_2_)" fill="none" stroke="#000000" stroke-width="0.3991" stroke-linejoin="round" stroke-miterlimit="10" d="
		M191.213,220.653c-0.352-0.955-0.534-2.014-0.564-3.399c-0.14,1.49-0.819,1.907-2.212,1.356
		C189.658,219.266,190.521,219.907,191.213,220.653z"/>
	
		<line clip-path="url(#SVGID_2_)" fill="none" stroke="#000000" stroke-width="0.3985" stroke-miterlimit="10" x1="199.251" y1="151.727" x2="199.251" y2="217.612"/>
	<path clip-path="url(#SVGID_2_)" d="M199.251,218.409c0.199-0.996,0.598-1.993,1.295-3.188c-0.896,1.195-1.694,1.195-2.591,0
		C198.652,216.416,199.051,217.413,199.251,218.409z"/>
	
		<path clip-path="url(#SVGID_2_)" fill="none" stroke="#000000" stroke-width="0.3985" stroke-linejoin="round" stroke-miterlimit="10" d="
		M199.251,218.409c0.199-0.996,0.598-1.993,1.295-3.188c-0.896,1.195-1.694,1.195-2.591,0
		C198.652,216.416,199.051,217.413,199.251,218.409z"/>
	
		<line clip-path="url(#SVGID_2_)" fill="none" stroke="#000000" stroke-width="0.3985" stroke-miterlimit="10" x1="249.766" y1="151.435" x2="207.706" y2="219.974"/>
	<path clip-path="url(#SVGID_2_)" d="M207.288,220.653c0.692-0.746,1.555-1.388,2.776-2.043c-1.392,0.551-2.072,0.134-2.212-1.356
		C207.822,218.64,207.641,219.699,207.288,220.653z"/>
	
		<path clip-path="url(#SVGID_2_)" fill="none" stroke="#000000" stroke-width="0.3991" stroke-linejoin="round" stroke-miterlimit="10" d="
		M207.288,220.653c0.692-0.746,1.555-1.388,2.776-2.043c-1.392,0.551-2.072,0.134-2.212-1.356
		C207.822,218.64,207.641,219.698,207.288,220.653z"/>
	
		<line clip-path="url(#SVGID_2_)" fill="none" stroke="#000000" stroke-width="0.3985" stroke-miterlimit="10" x1="35.819" y1="142.182" x2="245.285" y2="215.899"/>
	<path clip-path="url(#SVGID_2_)" d="M246.037,216.164c-0.874-0.52-1.682-1.227-2.579-2.281c0.831,1.243,0.566,1.995-0.86,2.444
		C243.958,216.066,245.03,216.021,246.037,216.164z"/>
	
		<path clip-path="url(#SVGID_2_)" fill="none" stroke="#000000" stroke-width="0.3987" stroke-linejoin="round" stroke-miterlimit="10" d="
		M246.037,216.164c-0.874-0.52-1.682-1.227-2.579-2.281c0.831,1.243,0.566,1.995-0.86,2.444
		C243.958,216.066,245.03,216.021,246.037,216.164z"/>
	
		<line clip-path="url(#SVGID_2_)" fill="none" stroke="#000000" stroke-width="0.3985" stroke-miterlimit="10" x1="95.07" y1="143.854" x2="246.227" y2="214.782"/>
	<path clip-path="url(#SVGID_2_)" d="M246.95,215.122c-0.82-0.605-1.556-1.393-2.344-2.536c0.704,1.324,0.364,2.049-1.104,2.354
		C244.886,214.815,245.96,214.878,246.95,215.122z"/>
	
		<path clip-path="url(#SVGID_2_)" fill="none" stroke="#000000" stroke-width="0.3999" stroke-linejoin="round" stroke-miterlimit="10" d="
		M246.95,215.122c-0.82-0.605-1.555-1.393-2.344-2.536c0.704,1.324,0.364,2.049-1.104,2.354
		C244.886,214.815,245.96,214.878,246.95,215.122z"/>
	
		<line clip-path="url(#SVGID_2_)" fill="none" stroke="#000000" stroke-width="0.3985" stroke-miterlimit="10" x1="154.214" y1="147.123" x2="247.819" y2="213.007"/>
	<path clip-path="url(#SVGID_2_)" d="M248.472,213.467c-0.701-0.738-1.287-1.639-1.864-2.899c0.462,1.424,0.003,2.077-1.494,2.122
		C246.495,212.808,247.541,213.056,248.472,213.467z"/>
	
		<path clip-path="url(#SVGID_2_)" fill="none" stroke="#000000" stroke-width="0.3992" stroke-linejoin="round" stroke-miterlimit="10" d="
		M248.472,213.467c-0.701-0.738-1.287-1.639-1.864-2.899c0.462,1.424,0.003,2.077-1.494,2.122
		C246.495,212.808,247.541,213.056,248.472,213.467z"/>
	
		<line clip-path="url(#SVGID_2_)" fill="none" stroke="#000000" stroke-width="0.3985" stroke-miterlimit="10" x1="209.385" y1="151.358" x2="250.963" y2="209.865"/>
	<path clip-path="url(#SVGID_2_)" d="M251.425,210.516c-0.415-0.928-0.667-1.971-0.791-3.35c-0.038,1.494-0.688,1.956-2.112,1.5
		C249.783,209.237,250.686,209.818,251.425,210.516z"/>
	
		<path clip-path="url(#SVGID_2_)" fill="none" stroke="#000000" stroke-width="0.3986" stroke-linejoin="round" stroke-miterlimit="10" d="
		M251.425,210.516c-0.415-0.928-0.667-1.971-0.791-3.35c-0.038,1.494-0.688,1.956-2.112,1.5
		C249.783,209.237,250.686,209.818,251.425,210.516z"/>
	
		<line clip-path="url(#SVGID_2_)" fill="none" stroke="#000000" stroke-width="0.3985" stroke-miterlimit="10" x1="258.572" y1="151.727" x2="258.572" y2="203.437"/>
	<path clip-path="url(#SVGID_2_)" d="M258.572,204.233c0.199-0.996,0.598-1.992,1.295-3.188c-0.896,1.195-1.693,1.195-2.59,0
		C257.975,202.241,258.373,203.237,258.572,204.233z"/>
	
		<path clip-path="url(#SVGID_2_)" fill="none" stroke="#000000" stroke-width="0.3985" stroke-linejoin="round" stroke-miterlimit="10" d="
		M258.572,204.233c0.199-0.996,0.598-1.992,1.295-3.188c-0.896,1.195-1.693,1.195-2.59,0
		C257.975,202.241,258.373,203.237,258.572,204.233z"/>
	
		<line clip-path="url(#SVGID_2_)" fill="none" stroke="#000000" stroke-width="0.3985" stroke-miterlimit="10" x1="245.049" y1="223.578" x2="215.013" y2="230.251"/>
	<path clip-path="url(#SVGID_2_)" d="M214.234,230.424c1.017-0.021,2.076,0.151,3.395,0.573c-1.361-0.616-1.534-1.396-0.562-2.53
		C216.051,229.407,215.164,230.013,214.234,230.424z"/>
	
		<path clip-path="url(#SVGID_2_)" fill="none" stroke="#000000" stroke-width="0.3987" stroke-linejoin="round" stroke-miterlimit="10" d="
		M214.234,230.424c1.017-0.021,2.076,0.151,3.395,0.573c-1.361-0.616-1.534-1.396-0.562-2.53
		C216.051,229.407,215.164,230.013,214.234,230.424z"/>
</g>
</svg>
